<svg id="Layer_1" data-name="Layer 1" xmlns="http://www.w3.org/2000/svg" viewBox="0 0 63.96 59.13"><path d="M14.82,63.29H8.75V21.05C8.75,13.77,13.8,7.84,20,7.84c6,0,10.88,5.48,11.25,12.37-3.68.49-6.45,3.95-6.45,8.06v1.44a.88.88,0,0,0,.83.92h3.68a3.18,3.18,0,0,0,2.94,2.57,3.18,3.18,0,0,0,2.94-2.57h3.38a.88.88,0,0,0,.83-.92V28.27c0-4.13-2.8-7.6-6.49-8.06C32.55,12.3,26.91,6,20,6,12.91,6,7.13,12.71,7.09,21V63.29H1.87a.92.92,0,0,0,0,1.84h13a.92.92,0,0,0,0-1.84ZM32.27,31.35a1.32,1.32,0,0,1-1.14-.72h2.29A1.34,1.34,0,0,1,32.27,31.35Zm5.5-3.08v.52H26.47v-.52C26.47,24.81,29,22,32.12,22S37.77,24.81,37.77,28.27Z" transform="translate(-1.04 -6)"/><path d="M60.73,49.34v-6a3.82,3.82,0,0,0-3.84-3.78H40.34a3.8,3.8,0,0,0-2.72,1.12l-.21.23a3.86,3.86,0,0,0-2.94-1.35H17.83A3.82,3.82,0,0,0,14,43.36v6a4.37,4.37,0,0,0-4,4.32V64.22a.9.9,0,0,0,.9.91h7a.9.9,0,0,0,.9-.91V63H56.18v1.19a.9.9,0,0,0,.9.91h7a.9.9,0,0,0,.9-.91V53.68A4.38,4.38,0,0,0,60.73,49.34ZM38.91,42a2,2,0,0,1,1.43-.59H56.89a2,2,0,0,1,2,2v6.3a4.36,4.36,0,0,0-2.74,4V54H38.31V43.45A2,2,0,0,1,38.91,42Zm-21.08-.59H34.47a2,2,0,0,1,2,2V54H18.82v-.34a4.36,4.36,0,0,0-3-4.12v-6.2a2,2,0,0,1,2-2ZM17,63.32h-5.2V53.68a2.6,2.6,0,0,1,5.2,0Zm1.81-2.11V55.83H56.18v5.38Zm44.37,2.11H58V53.68a2.6,2.6,0,0,1,5.2,0Z" transform="translate(-1.04 -6)"/><path d="M42,12c-.23,0-.42.3-.42.66V23.9c0,.37.19.67.42.67H58.48c.24,0,.42-.3.42-.67V12.66c0-.36-.18-.66-.42-.66Zm9.72,11.24-.06-.1,2-2.61,1.83,2.71Zm-6.37,0L48,19l2.51,4.23Zm12.75,0H56.64l-2.75-4.08a.32.32,0,0,0-.56,0l-2.27,3L48.34,17.6a.37.37,0,0,0-.29-.21.38.38,0,0,0-.31.19l-3.61,5.66H42.39V13.33H58.07Z" transform="translate(-1.04 -6)"/><path d="M51.83,19.3A2.33,2.33,0,0,0,54,16.84a2.19,2.19,0,1,0-4.34,0A2.34,2.34,0,0,0,51.83,19.3Zm0-3.56a1,1,0,0,1,.89,1.1.91.91,0,1,1-1.78,0A1,1,0,0,1,51.83,15.74Z" transform="translate(-1.04 -6)"/></svg>