<svg id="Layer_1" data-name="Layer 1" xmlns="http://www.w3.org/2000/svg" viewBox="0 0 65 64.95"><path d="M64,43.46a22.18,22.18,0,0,0-6.57-.13V36A8.89,8.89,0,0,0,65,27.19a29.1,29.1,0,0,0-2.33-9.69c-1.31-3.11-3.5-6.81-6.56-6.81s-5.25,3.7-6.55,6.81a28.86,28.86,0,0,0-2.33,9.69,8.94,8.94,0,0,0,.39,2.62,5.07,5.07,0,0,0-.39,9.91v7.53a16.89,16.89,0,0,0-1.78,1.47c-.84-.23-1.67-.48-2.48-.74A50.18,50.18,0,0,1,29.2,41.23V32.94a8.91,8.91,0,0,0,7.62-8.8,29.05,29.05,0,0,0-2.33-9.68C33.18,11.35,31,7.64,27.93,7.64c-1.55,0-2.57.5-3.93,2.36l.81,3.18c1.09-1.9,2.22-3,3.12-3s2.59,1.38,4.22,5.26a27,27,0,0,1,2.13,8.7,6.5,6.5,0,0,1-6.35,6.35C24,30.72,25.39,28.61,24,29c0,0,.19,4.76,2.66,3.94v6.38C25,37,23,37.08,20.32,36.31A14.07,14.07,0,0,0,14,35.87l-2.53.43A16.07,16.07,0,0,0,.2,44a1.38,1.38,0,0,0-.2.68v19A1.27,1.27,0,0,0,1.27,65H44.94a1.27,1.27,0,0,0,0-2.54H34.18a41.67,41.67,0,0,0,11.23-10A17.64,17.64,0,0,1,49.2,49h0a20.34,20.34,0,0,1,13.25-3.14V62.48H56.37a1.27,1.27,0,1,0,0,2.54h7.36A1.27,1.27,0,0,0,65,63.75v-19A1.27,1.27,0,0,0,64,43.46Zm-61.41,19V45.09a15.82,15.82,0,0,1,10.4-6.51,16.16,16.16,0,0,1,6.76.19,15.18,15.18,0,0,1,5.84,2.89,49,49,0,0,0,8.94,5.64A25,25,0,0,0,25,49.61c-3.33,1.67-5.17,4-5.17,6.53,0,2.27,1.41,4.53,3.81,6.34Zm26.12-.1c-3.74-1.48-6.32-4-6.32-6.24,0-1.51,1.37-3.06,3.76-4.26a23.45,23.45,0,0,1,10.21-2.09,22.78,22.78,0,0,1,7.19,1C35.9,60.15,29.53,61.86,28.66,62.38Zm19.84-25a2.54,2.54,0,0,1,0-5.08l.34,0A9.17,9.17,0,0,0,51,34.47a1.87,1.87,0,0,1,0,.34A2.54,2.54,0,0,1,48.5,37.35Zm6.34,6.45a22.12,22.12,0,0,0-5.07,1.88v-6a5.09,5.09,0,0,0,3.73-4,9,9,0,0,0,1.34.31ZM49.77,27.19a26.68,26.68,0,0,1,2.13-8.7c1.63-3.88,3.24-5.27,4.21-5.27s2.59,1.39,4.22,5.27a26.94,26.94,0,0,1,2.13,8.7,6.35,6.35,0,1,1-12.69,0Z" transform="translate(0 -0.08)"/><circle cx="50.65" cy="63.68" r="1.27"/><path d="M9.52,8.83H12a.63.63,0,0,0,.63-.63V5.7A.63.63,0,0,0,12,5.08H9.52a.62.62,0,0,0-.62.62V8.2A.63.63,0,0,0,9.52,8.83Zm.63-2.5H11.4V7.58H10.15Z" transform="translate(0 -0.08)"/><path d="M14.52,8.83H17a.63.63,0,0,0,.63-.63V5.7A.63.63,0,0,0,17,5.08h-2.5a.62.62,0,0,0-.62.62V8.2A.63.63,0,0,0,14.52,8.83Zm.63-2.5H16.4V7.58H15.15Z" transform="translate(0 -0.08)"/><path d="M19.52,8.83H22a.63.63,0,0,0,.63-.63V5.7A.63.63,0,0,0,22,5.08h-2.5a.62.62,0,0,0-.62.62V8.2A.63.63,0,0,0,19.52,8.83Zm.63-2.5H21.4V7.58H20.15Z" transform="translate(0 -0.08)"/><path d="M9.52,13.83H12a.63.63,0,0,0,.63-.63V10.7a.63.63,0,0,0-.63-.62H9.52a.62.62,0,0,0-.62.62v2.5A.63.63,0,0,0,9.52,13.83Zm.63-2.5H11.4v1.25H10.15Z" transform="translate(0 -0.08)"/><path d="M14.52,13.83H17a.63.63,0,0,0,.63-.63V10.7a.63.63,0,0,0-.63-.62h-2.5a.62.62,0,0,0-.62.62v2.5A.63.63,0,0,0,14.52,13.83Zm.63-2.5H16.4v1.25H15.15Z" transform="translate(0 -0.08)"/><path d="M19.52,13.83H22a.63.63,0,0,0,.63-.63V10.7a.63.63,0,0,0-.63-.62h-2.5a.62.62,0,0,0-.62.62v2.5A.63.63,0,0,0,19.52,13.83Zm.63-2.5H21.4v1.25H20.15Z" transform="translate(0 -0.08)"/><path d="M9.52,18.83H12a.63.63,0,0,0,.63-.63V15.7a.63.63,0,0,0-.63-.62H9.52a.62.62,0,0,0-.62.62v2.5A.63.63,0,0,0,9.52,18.83Zm.63-2.5H11.4v1.25H10.15Z" transform="translate(0 -0.08)"/><path d="M14.52,18.83H17a.63.63,0,0,0,.63-.63V15.7a.63.63,0,0,0-.63-.62h-2.5a.62.62,0,0,0-.62.62v2.5A.63.63,0,0,0,14.52,18.83Zm.63-2.5H16.4v1.25H15.15Z" transform="translate(0 -0.08)"/><path d="M19.52,18.83H22a.63.63,0,0,0,.63-.63V15.7a.63.63,0,0,0-.63-.62h-2.5a.62.62,0,0,0-.62.62v2.5A.63.63,0,0,0,19.52,18.83Zm.63-2.5H21.4v1.25H20.15Z" transform="translate(0 -0.08)"/><path d="M9.52,23.83H12a.63.63,0,0,0,.63-.63V20.7a.63.63,0,0,0-.63-.62H9.52a.62.62,0,0,0-.62.62v2.5A.63.63,0,0,0,9.52,23.83Zm.63-2.5H11.4v1.25H10.15Z" transform="translate(0 -0.08)"/><path d="M14.52,23.83H17a.63.63,0,0,0,.63-.63V20.7a.63.63,0,0,0-.63-.62h-2.5a.62.62,0,0,0-.62.62v2.5A.63.63,0,0,0,14.52,23.83Zm.63-2.5H16.4v1.25H15.15Z" transform="translate(0 -0.08)"/><path d="M19.52,23.83H22a.63.63,0,0,0,.63-.63V20.7a.63.63,0,0,0-.63-.62h-2.5a.62.62,0,0,0-.62.62v2.5A.63.63,0,0,0,19.52,23.83Zm.63-2.5H21.4v1.25H20.15Z" transform="translate(0 -0.08)"/><path d="M9.52,28.83H12a.63.63,0,0,0,.63-.63V25.7a.63.63,0,0,0-.63-.62H9.52a.62.62,0,0,0-.62.62v2.5A.63.63,0,0,0,9.52,28.83Zm.63-2.5H11.4v1.25H10.15Z" transform="translate(0 -0.08)"/><path d="M14.52,28.83H17a.63.63,0,0,0,.63-.63V25.7a.63.63,0,0,0-.63-.62h-2.5a.62.62,0,0,0-.62.62v2.5A.63.63,0,0,0,14.52,28.83Zm.63-2.5H16.4v1.25H15.15Z" transform="translate(0 -0.08)"/><path d="M19.52,28.83H22a.63.63,0,0,0,.63-.63V25.7a.63.63,0,0,0-.63-.62h-2.5a.62.62,0,0,0-.62.62v2.5A.63.63,0,0,0,19.52,28.83Zm.63-2.5H21.4v1.25H20.15Z" transform="translate(0 -0.08)"/><path d="M25.15,38V3.83h.62a.63.63,0,0,0,.63-.63V.7a.63.63,0,0,0-.63-.62h-20A.62.62,0,0,0,5.15.7V3.2a.63.63,0,0,0,.62.63H6.4V38ZM6.4,1.33H25.15V2.58H6.4Zm8.75,35h-2.5v-5h2.5Zm3.75,0H16.4v-5h2.5Zm5,.67H20.15V30.7a.63.63,0,0,0-.63-.62H12a.62.62,0,0,0-.62.62V38H7.65V3.83H23.9Z" transform="translate(0 -0.08)"/><path d="M11.43,36.76" transform="translate(0 -0.08)"/></svg>