<?xml version="1.0" encoding="utf-8"?>
<!-- Generator: Adobe Illustrator 26.0.1, SVG Export Plug-In . SVG Version: 6.00 Build 0)  -->
<svg version="1.1" id="Layer_1" xmlns="http://www.w3.org/2000/svg" xmlns:xlink="http://www.w3.org/1999/xlink" x="0px" y="0px"
	 viewBox="0 0 1936 399" style="enable-background:new 0 0 1936 399;" xml:space="preserve">
<style type="text/css">
	.st0{display:none;}
	.st1{display:inline;}
	.st2{font-family:'MyriadPro-Regular';}
	.st3{font-size:100px;}
	.st4{fill:none;stroke:#000000;stroke-width:15;stroke-miterlimit:10;}
	.st5{display:inline;fill:#669FF4;}
	.st6{fill:none;}
</style>
<g id="Loneliness" class="st0">
	<text transform="matrix(1 0 0 1 1779.3418 294.5066)" class="st1 st2 st3">Not</text>
	<text transform="matrix(1 0 0 1 1678.3418 414.5066)" class="st1 st2 st3">lonely</text>
	<text transform="matrix(1 0 0 1 1.9786 354.5066)" class="st1 st2 st3">Lonely</text>
</g>
<g id="Good_x2F_not_good">
	<text transform="matrix(1 0 0 1 1622.1396 353.7801)" class="st2 st3">Good</text>
	<text transform="matrix(1 0 0 1 76.9786 354.2332)" class="st2 st3">Not good</text>
</g>
<g id="Line">
	<line class="st4" x1="95" y1="135" x2="1839" y2="135"/>
</g>
<g id="Ticks">
	<line class="st4" x1="94.5" y1="224" x2="94.5" y2="47"/>
	<line class="st4" x1="1838.5" y1="224" x2="1838.5" y2="47"/>
	<line class="st4" x1="1252.5" y1="224" x2="1252.5" y2="47"/>
	<line class="st4" x1="1545.5" y1="224" x2="1545.5" y2="47"/>
	<line class="st4" x1="963.5" y1="223" x2="963.5" y2="46"/>
	<line class="st4" x1="676.5" y1="224" x2="676.5" y2="47"/>
	<line class="st4" x1="385.5" y1="224" x2="385.5" y2="47"/>
</g>
<g id="Dot" class="st0">
	<circle class="st5" cx="95" cy="134.5" r="90"/>
</g>
<g id="Layer_6">
</g>
<rect class="st6" width="1936" height="399"/>
</svg>
