<?xml version="1.0" encoding="utf-8"?>
<!-- Generator: Adobe Illustrator 24.1.0, SVG Export Plug-In . SVG Version: 6.00 Build 0)  -->
<svg version="1.1" xmlns="http://www.w3.org/2000/svg" xmlns:xlink="http://www.w3.org/1999/xlink" x="0px" y="0px"
	 viewBox="0 0 512 512" style="enable-background:new 0 0 512 512;" xml:space="preserve">
<style type="text/css">
	.st0{display:none;}
	.st1{display:inline;}
	.st2{display:inline;fill:none;stroke:#000000;stroke-miterlimit:10;}
</style>
<g id="Volunteering" class="st0">
	<g class="st1">
		<path d="M206.4,20.8C191,9.4,170.9,9.3,158.7,20.9c-14.5,13.8-14.5,36.4,0,50.3c0,0,0.1,0.1,0.1,0.1l39,35.7
			c0.2,0.2,0.4,0.4,0.6,0.5l0.2,0.2c1.9,1.4,4,3,7.3,3.1c0.1,0,0.2,0,0.3,0c0.1,0,0.2,0,0.3,0c3.3-0.1,5.5-1.7,7.4-3.1l0.2-0.2
			c0.2-0.2,0.4-0.3,0.6-0.5l34.3-31.4l4.7-4.3c0,0,0.1-0.1,0.1-0.1c14.5-13.9,14.5-36.4,0-50.3C241.9,9.2,221.7,9.3,206.4,20.8
			L206.4,20.8z M242.7,61l-36.3,33.2l-31.7-29L170,61c-8.6-8.3-8.5-21.7,0.1-29.9c7.6-7.2,19.9-4.3,27.6,2.2c0.6,0.5,1,0.9,1.4,1.2
			c1.6,1.4,3.7,3.3,7.3,3.3c3.6,0,5.7-1.9,7.3-3.2c0.4-0.3,0.8-0.7,1.4-1.2c7.7-6.4,20-9.4,27.6-2.1C251.3,39.3,251.3,52.7,242.7,61
			z"/>
		<path d="M207.9,227.9c-10.6-3.8-22.5-2.2-32.8,4.3c-1.7,1-3.2,2.2-4.7,3.4v-90.2c0-13.8-12.2-25.1-27.2-25.1
			c-4,0-7.9,0.8-11.3,2.3c-0.2-13.7-12.3-24.8-27.2-24.8c-11.6,0-21.5,6.7-25.4,16.2c-3.9-2-8.4-3.1-13.1-3.1
			c-15,0-27.2,11.3-27.2,25.1v19.9c-2.5-0.8-5.3-1.3-8.1-1.3C17.3,154.6,6,164.8,6,176.8l0,129.4c0.1,19.9,6.8,31,13.6,37.8
			c-4.5,1.9-7.5,6.1-7.5,10.9v56.4c0,4,3.6,7.3,7.9,7.3s7.9-3.3,7.9-7.3v-53.8h150.6v133.7H28v-43.3c0-4-3.6-7.3-7.9-7.3
			s-7.9,3.3-7.9,7.3v45.9c0,6.7,5.9,12.1,13.1,12.1h156.1c7.2,0,13.1-5.4,13.1-12.1V354.9c0-4.7-3-8.8-7.3-10.8
			c5.5-8.3,9.1-17,10.8-25.8c4.9-25.5,11.8-42.2,16.8-54.5c3.7-8.9,6.1-14.8,6.1-20.2C221,236.3,216.6,231,207.9,227.9L207.9,227.9z
			 M200,258.6c-5,12.1-12.5,30.3-17.6,57.1c-1.8,9.3-6.3,18.4-13.3,27.1H43c-1.3-1.1-2.7-2-4.2-3c-7-4.7-16.7-11.1-16.9-33.7
			l0-129.3c0-3.9,4.2-7.5,8.9-7.5c4.5,0,8.1,3.4,8.1,7.5v40.4c0,4,3.6,7.3,7.9,7.3s7.9-3.3,7.9-7.3V136c0-5.8,5.1-10.4,11.4-10.4
			c6.2,0,11.3,4.7,11.3,10.4v82.6c0,4,3.6,7.3,7.9,7.3s7.9-3.3,7.9-7.3V123c0-5.8,5.1-10.5,11.3-10.5c6.2,0,11.3,4.7,11.3,10.5v89.5
			c0,4,3.6,7.3,7.9,7.3c4.4,0,7.9-3.3,7.9-7.3v-67c0-5.8,5.1-10.4,11.3-10.4s11.3,4.7,11.3,10.4v120.3c-17.1,8.6-32.5,23-36.1,34.4
			c-1.2,3.9,1.2,7.9,5.4,9.1c0.7,0.2,1.5,0.3,2.2,0.3c3.4,0,6.6-2.1,7.6-5.3c2-6.4,14.7-19.9,32.2-27.4c2.8-1.2,4.6-3.8,4.6-6.6
			c0-10.8,5.1-20.5,13.7-26c5.8-3.7,12.4-4.7,18.1-2.7c2.1,0.7,2.7,1.3,2.9,1.4C205.6,245,202.6,252.2,200,258.6L200,258.6z"/>
		<path d="M491.6,355.2c-5.3-5.1-11.8-8.4-18.8-10.1v-58.6c0-5.2-3.4-9.7-8.3-11.7c6.2-9.2,10.3-18.9,12.1-28.7
			c5.4-27.9,12.9-46.3,18.4-59.7c4-9.7,6.6-16,6.7-21.9c0.1-7.7-4.6-13.2-13.8-16.5c-11.4-4-24.2-2.3-35.1,4.6
			c-2.3,1.4-4.4,3-6.3,4.8V57.3c0-14.8-13-26.8-29-26.8c-4.7,0-9.2,1-13.1,2.9v-0.7c0-14.8-13-26.8-29-26.8
			c-12.7,0-23.5,7.5-27.4,18c-4.3-2.4-9.4-3.7-14.7-3.7c-16,0-29,12-29,26.8v22.8c-3-1.1-6.2-1.7-9.6-1.7
			c-14.3,0-26.3,10.8-26.3,23.5l0.1,141.5c0.1,22.2,7.8,34.4,15.5,41.7c-5.1,1.9-8.8,6.5-8.8,11.9v90.3c0,4,3.6,7.3,7.9,7.3
			s7.9-3.3,7.9-7.3v-88.4h13.3c0,0,0,0,0,0c0,0,0,0,0,0H457v55.7c-10.3,1.1-20.8,5.3-29.9,12.7c-20.5-16.6-48.1-17.4-64.5-1.7
			c-19.2,18.3-19.2,48.1,0,66.4c0,0,0.1,0.1,0.1,0.1l54.7,50c0.2,0.2,0.4,0.4,0.6,0.5l0.4,0.3c2.5,1.8,4.8,3.6,8.4,3.7
			c0.1,0,0.2,0,0.2,0c0.1,0,0.2,0,0.2,0c3.6-0.1,6-1.9,8.3-3.6l0.5-0.4c0.2-0.2,0.4-0.3,0.6-0.5l20.2-18.4v38.1H290.8v-80.7
			c0-4-3.6-7.3-7.9-7.3s-7.9,3.3-7.9,7.3v82.6c0,7,6.2,12.7,13.8,12.7h170.3c7.6,0,13.8-5.7,13.8-12.7v-54.5l18.6-17
			c0,0,0.1-0.1,0.1-0.1C510.8,403.3,510.8,373.5,491.6,355.2L491.6,355.2z M446.1,273.8H307.6c-1.4-1.2-3.1-2.3-4.8-3.4
			c-7.8-5.2-18.6-12.4-18.7-37.4l-0.1-141.4c0-4.6,5-8.9,10.5-8.9c5.3,0,9.6,4,9.6,8.9v44.2c0,4,3.6,7.3,7.9,7.3s7.9-3.3,7.9-7.3V47
			c0-6.7,5.9-12.1,13.1-12.1c7.2,0,13.1,5.4,13.1,12.1v90.3c0,4,3.6,7.3,7.9,7.3s7.9-3.3,7.9-7.3V32.8c0-6.7,5.9-12.1,13.2-12.1
			c7.2,0,13.1,5.4,13.1,12.1v97.8c0,4,3.6,7.3,7.9,7.3s7.9-3.3,7.9-7.3V57.3c0-6.7,5.9-12.1,13.1-12.1s13.1,5.4,13.1,12.1v132
			c-18.8,9.2-35.6,25-39.6,37.4c-1.2,3.9,1.2,8,5.4,9.1c0.7,0.2,1.5,0.3,2.2,0.3c3.4,0,6.6-2.1,7.6-5.3c2.3-7.2,16.3-22.1,35.6-30.4
			c2.8-1.2,4.6-3.8,4.6-6.6c0-12.1,5.7-22.9,15.3-29c6.6-4.2,14-5.3,20.4-3c3.7,1.3,3.7,1.9,3.7,2.7c0,3.2-2.5,9.2-5.6,16.8
			c-5.4,13.2-13.6,33-19.2,62.3C459,254,454,264.1,446.1,273.8L446.1,273.8z M480.3,411.3l-53.2,48.6l-53.2-48.6
			c-13.2-12.7-13.2-33.3,0.1-46c12-11.4,31.1-7.1,43.1,2.9c0.8,0.7,1.5,1.3,2,1.8c1.9,1.7,4.2,3.7,7.9,3.7h0.1c3.7,0,6-2.1,7.9-3.7
			c0.5-0.5,1.2-1.1,2.1-1.8c7.4-6.1,17.5-10.1,26.9-9.6c0.2,0,0.4,0,0.6,0c5.7,0.4,11.1,2.5,15.6,6.7
			C493.5,378,493.5,398.6,480.3,411.3L480.3,411.3z"/>
	</g>
</g>
<g id="Sport" class="st0">
	<g transform="translate(0.000000,512.000000) scale(0.100000,-0.100000)" class="st1">
		<path d="M2245.8,5041.7c-379.6-46.8-747.5-183.5-1064.7-394.3c-491.9-326.9-850-805.1-1017.9-1361.4c-40-128.8-79-325-93.7-456.7
			c-12.7-122-12.7-420.6,0-542.6C174.9,1297.2,874.6,452.1,1830,163.2c128.8-40,325-79,456.7-93.7c122-12.7,420.6-12.7,542.6,0
			c577.7,61.5,1113.5,324,1525.3,747.5c282,291.8,482.1,629.5,598.2,1013c72.2,238.1,103.4,456.7,103.4,730
			c0,448.9-107.3,859.8-323,1235.5C4335.2,4488.4,3652,4943.1,2860.6,5041.7C2713.2,5059.3,2392.1,5059.3,2245.8,5041.7z
			 M2038.9,4500.1l421.6-166.9v-418.7v-417.7l-407.9-325.9L1645.6,2844l-418.7,139.6C996.6,3060.6,806.3,3125,804.4,3128
			c-2.9,2.9-42.9,166.9-89.8,366L628.7,3856l45.9,62.5c161,220.6,368.9,420.6,594.3,571.9c104.4,69.3,323,187.4,337.7,181.5
			C1612.4,4669.9,1806.6,4592.8,2038.9,4500.1z M3623.7,4620.1c316.2-161,604.1-407.9,817.8-701.7l45.9-62.5l-85.9-362.1
			c-46.8-199.1-86.9-363-89.8-366c-2-2.9-192.3-67.3-422.6-144.4L3470.5,2844l-406.9,326.9l-407.9,325.9v417.7v417.7l427.4,171.8
			c234.2,93.7,427.4,170.8,429.4,171.8C3514.4,4675.7,3564.2,4651.3,3623.7,4620.1z M1177.2,2802l409.9-136.6l121-483.1
			c66.4-265.4,118.1-488.9,115.2-496.7c-3.9-9.8-364-496.7-391.3-528.9c-1-1-184.4,27.3-408.9,63.4L615,1284.5l-40,62.5
			c-54.7,85.9-145.4,270.3-187.4,378.6c-62.5,164-123,404-137.6,549.4l-5.9,63.4L494,2639c137.6,164.9,255.7,299.6,261.5,299.6
			C762.4,2938.6,951.7,2877.2,1177.2,2802z M4623,2639l249.8-299.6l-6.8-64.4c-30.3-287.9-153.2-643.1-315.2-912.5l-46.8-77.1
			l-406.9-64.4l-407.9-64.4l-195.2,258.6c-108.3,141.5-198.1,263.5-201,271.3c-2.9,6.8,48.8,230.3,115.2,495.8l121,483.1l405,135.6
			c222.5,75.1,412.8,136.6,421.6,136.6C4366.4,2938.6,4464,2829.3,4623,2639z M3336.8,1306l198.1-261.5l-212.7-372.8l-213.7-372.8
			l-52.7-11.7c-160-37.1-260.6-46.8-497.7-46.8c-189.3,0-262.5,3.9-353.3,18.5c-62.5,9.8-118.1,21.5-123,24.4
			c-4.9,2.9-117.1,175.7-249.8,383.5c-154.2,241-239.1,382.6-234.2,390.4c3.9,6.8,92.7,125.9,196.2,264.5l188.3,250.8l577.7-2
			l577.7-2.9L3336.8,1306z"/>
	</g>
</g>
<g id="Social_club" class="st0">
	<g id="Layer_1_1_" class="st1">
		<g transform="translate(0.000000,256.000000) scale(0.100000,-0.100000)">
			<path d="M732.3,122C591.7,57.6,472.4-56.9,403.5-195c-50.1-100-62-157.4-62-302.8c0-207.3,42.9-321.8,169.2-467.2
				c54.7-59.5,71.6-95.2,50.1-102.5c-81-26.3-281.3-214.5-362.3-343.3c-123.9-188.3-147.8-319.4-138.1-734l7-345.5l233.6-7.2
				l231.2-7v97.6v95.2h-143h-143v162c0,467.2,128.7,729.2,436.1,891.4c83.4,45.3,138.1,54.7,326.4,54.7s243-9.6,326.4-54.7
				c307.4-162,436.1-424.3,436.1-891.4v-162h-143h-143v-95.2v-97.6l233.6,7.2l231.2,7.2l7.2,367.1c7.2,426.7-16.6,543.4-155,741.3
				c-81,114.5-221.5,243-333.6,307.4c-35.7,19-31.1,33.3,38.1,112.1c126.3,143,169.2,259.9,169.2,464.8c0,145.4-11.8,202.5-62,302.8
				C1495,46.2,1292.3,167.7,1008.8,167.7C884.9,167.3,799.1,153.1,732.3,122z M1218.5-92.6c317-162,328.8-619.8,19-800.8
				c-174-102.5-440.9-66.8-564.8,73.8c-159.6,183.5-152.6,507.7,16.6,655.4C830.2-42.4,1058.9-11.3,1218.5-92.6z"/>
			<path d="M3833.6,120.3c-140.5-64.4-259.9-178.9-328.8-317c-50.1-100-62-157.4-62-302.8c0-207.3,42.9-321.8,169.2-467.2
				c54.7-59.5,71.6-95.2,50.1-102.5c-81-26.3-281.3-214.5-362.3-343.3c-123.9-188.3-147.8-319.4-138.1-734l7.2-345.7l233.6-7.2
				l231-6.8v97.6v95.2h-143h-143v162c0,467.2,128.7,729.2,436.1,891.4c83.4,45.3,138.1,54.7,326.4,54.7c188.3,0,243-9.6,326.4-54.7
				c307.4-162,436.1-424.3,436.1-891.4v-162h-143h-143v-95.2v-97.6l233.6,7.2l231.2,7.2l7.2,367.1c7.2,426.7-16.6,543.4-155,741.3
				c-81,114.5-221.5,243-333.6,307.4c-35.7,19-31.1,33.3,38.1,112.1c126.3,143,169.2,259.9,169.2,464.8c0,145.4-11.8,202.5-62,302.8
				c-119.1,240.8-321.8,362.3-605.3,362.3C3986.2,165.6,3900.4,151.4,3833.6,120.3z M4319.9-94.2c317-162,328.8-619.8,19-800.8
				c-174-102.5-440.9-66.8-564.8,73.8c-159.6,183.5-152.6,507.7,16.6,655.4C3931.3-44.1,4160.3-13,4319.9-94.2z"/>
			<path d="M2296.2,2455.4c-136.8-62.6-252.8-174-319.9-308.4c-48.8-97.3-60.3-153.2-60.3-294.6c0-201.7,41.7-313.1,164.7-454.6
				c53.3-57.9,69.7-92.7,48.8-99.7c-78.8-25.6-273.7-208.7-352.5-334c-120.6-183.2-143.8-310.8-134.4-714.2l7-336.3l227.3-7l224.9-7
				v95v92.7h-139.1h-139.5v157.6c0,454.6,125.2,709.5,424.3,867.4c81.2,44.1,134.4,53.3,317.6,53.3c183.2,0,236.4-9.4,317.6-53.3
				c299.1-157.6,424.3-412.8,424.3-867.4V87.2h-139.1h-139.1V-5.5v-95l227.3,7l224.9,7l7,357.2c7,415.2-16.2,528.7-150.8,721.3
				c-78.8,111.4-215.6,236.4-324.6,299.1c-34.7,18.5-30.2,32.4,37.1,109.1c122.9,139.1,164.7,252.8,164.7,452.2
				c0,141.4-11.5,197-60.3,294.6c-115.9,234.3-313.1,352.5-589,352.5C2444.7,2499.5,2361.2,2485.7,2296.2,2455.4z M2778.4,2268.9
				c332.2-169.8,344.6-649.6,20-839.3c-182.4-107.4-462.1-70-592,77.3c-167.3,192.3-159.9,532.1,17.4,687
				C2371.1,2321.5,2610.9,2354,2778.4,2268.9z"/>
		</g>
	</g>
</g>
<g id="Professional" class="st0">
	<g transform="translate(0.000000,256.000000) scale(0.100000,-0.100000)" class="st1">
		<path d="M130.6,2433.7l-66.3-66.3V304.6v-2062.7l66.3-66.3l66.3-66.3h392.2c370.8,0,392.2,2,411.8,39c15.6,27.3,15.6,50.7,0,78.1
			c-19.5,37.1-41,39-361,39c-316.1,0-345.4,3.9-380.5,39c-39,39-39,64.4-39,2000.2s0,1961.2,39,2000.2c39,39,64.4,39,1102.6,39
			h1063.5v-267.3c0-316.1,27.3-400,154.2-470.3c66.3-37.1,105.4-42.9,322-42.9h245.9v-171.7c0-107.3,7.8-179.5,23.4-195.1
			c33.2-33.2,126.8-29.3,140.5,7.8c21.5,54.6,13.7,495.7-9.8,540.6c-25.4,46.8-474.2,534.7-616.7,673.3l-87.8,82H1397.1H197
			L130.6,2433.7z M2931,1832.6l85.9-93.7h-163.9c-138.6,0-167.8,5.9-206.9,42.9c-41,37.1-44.9,58.5-44.9,224.4v181.5l122.9-130.7
			C2792.4,1982.9,2886.1,1883.3,2931,1832.6z"/>
		<path d="M3528.1,2476.6c-3.9-13.7-25.4-107.3-48.8-208.8c-44.9-214.7-33.2-261.5,62.4-251.7c68.3,5.9,74.2,21.5,113.2,216.6
			c21.5,109.3,23.4,111.2,87.8,111.2s64.4,0,87.8-130.7c33.2-175.6,41-189.3,140.5-218.6c46.8-13.7,117.1-42.9,156.1-62.4
			c103.4-52.7,148.3-46.8,267.3,33.2c78.1,52.7,113.2,66.3,136.6,52.7c68.3-42.9,66.3-74.2-15.6-199l-78.1-122.9l31.2-72.2
			c17.6-39,50.7-121,74.2-185.4c23.4-62.4,54.6-121,70.3-128.8c15.6-7.8,85.9-25.4,160-39c130.7-23.4,130.7-23.4,130.7-87.8
			s-2-66.3-111.2-87.8c-195.1-39-208.8-44.9-232.2-128.8c-13.7-41-44.9-124.9-74.2-183.4c-42.9-91.7-46.8-111.2-23.4-146.4
			c62.4-93.7,136.6-50.7,216.6,132.7c62.4,138.6,66.3,142.5,173.7,158.1c42.9,7.8,109.3,21.5,144.4,33.2l62.4,21.5V1173
			c0,128.8-7.8,197.1-23.4,210.8c-13.7,9.8-82,31.2-152.2,42.9c-70.3,13.7-136.6,31.2-146.4,41c-11.7,7.8-37.1,62.4-56.6,119
			l-35.1,105.4l80,124.9c44.9,68.3,80,136.6,80,152.2c0,39-238.1,277.1-277.1,277.1c-15.6,0-83.9-35.1-152.2-80l-124.9-80
			l-105.4,35.1c-56.6,19.5-111.2,44.9-119,56.6c-9.8,9.8-27.3,76.1-41,146.4c-11.7,70.3-33.2,138.6-42.9,152.2
			c-13.7,15.6-82,23.4-214.7,23.4C3592.5,2500,3534,2492.2,3528.1,2476.6z"/>
		<path d="M3690.1,1815c-41-23.4-46.8-101.5-9.8-130.7c11.7-9.8,62.4-25.4,111.2-33.2c193.2-31.2,347.4-165.9,400-351.3
			c33.2-109.3,33.2-111.2-23.4-337.6c-23.4-93.7,103.4-142.5,158.1-56.6c15.6,23.4,39,99.5,52.7,169.8
			c19.5,107.3,17.6,146.4-9.8,253.7c-70.3,277.1-271.3,454.7-558.1,493.7C3762.3,1830.7,3707.6,1826.7,3690.1,1815z"/>
		<path d="M905.4,1789.7c-13.7-15.6-21.5-52.7-17.6-83.9l5.9-54.6h614.7h614.7l5.9,54.6c13.7,111.2,13.7,111.2-620.6,111.2
			C1026.4,1817,922.9,1813.1,905.4,1789.7z"/>
		<path d="M915.1,1440.4c-23.4-17.6-33.2-44.9-27.3-82l5.9-58.5h614.7h614.7l5.9,58.5c11.7,103.4-7.8,107.3-620.6,107.3
			C1081,1465.7,942.4,1459.9,915.1,1440.4z"/>
		<path d="M891.7,1067.6c-5.9-15.6-7.8-48.8-3.9-74.2c5.9-44.9,5.9-44.9,361-50.7c341.5-3.9,355.2-3.9,366.9,35.1
			c5.9,21.5,5.9,56.6,0,78.1c-11.7,37.1-29.3,39-363,39C967.8,1095,899.5,1089.1,891.7,1067.6z"/>
		<path d="M2281.1,956.4c-87.8-76.1-109.3-154.2-109.3-392.2V374.9l-396.1-5.9c-386.4-5.9-400-7.8-468.3-54.6
			c-41-27.3-89.8-83.9-111.2-128.8c-37.1-76.1-39-121-39-1254.8c0-1131.8,2-1176.7,39-1250.9c21.5-41,66.3-95.6,101.5-121l64.4-44.9
			l1738.7-5.9l1738.7-3.9l66.3,44.9c35.1,23.4,85.9,74.2,109.3,111.2l44.9,66.3l-3.9,1219.7L5050.2,168l-46.8,66.3
			c-85.9,121-158.1,138.6-581.5,138.6h-376.6v216.6c0,247.8-25.4,325.9-126.8,388.3c-60.5,37.1-95.6,39-815.7,39h-753.3
			L2281.1,956.4z M3828.6,813.9c37.1-33.2,41-58.5,41-240v-201h-78.1h-78.1v165.9v165.9h-604.9h-604.9V538.8V372.9h-78.1h-78.1
			v187.3c0,199,15.6,253.7,83.9,281c23.4,9.8,337.6,15.6,698.6,13.7C3746.7,851,3789.6,849.1,3828.6,813.9z M3537.9,451v-78.1
			h-429.3h-429.3V451V529h429.3h429.3V451z M4806.3,168c76.1-39,97.6-124.9,97.6-380.5c0-243.9-21.5-335.6-91.7-380.5
			c-41-27.3-1178.7-263.4-1268.4-263.4c-17.6,0-25.4,42.9-25.4,154.2c0,238.1-9.8,243.9-341.5,251.7
			c-444.9,11.7-478.1-5.9-478.1-249.8c0-85.9-5.9-156.1-13.7-156.1c-21.5,0-1163.1,214.7-1202.1,226.4
			c-17.6,5.9-60.5,33.2-91.7,60.5l-58.5,48.8v302.5V84.1l56.6,56.6l56.6,56.6h1652.9C4529.2,197.3,4757.5,193.4,4806.3,168z
			 M3342.7-936.5c0-351.3-13.7-402-128.8-456.6c-85.9-41-146.4-37.1-224.4,15.6c-105.4,70.3-115.1,107.3-115.1,448.8v306.4h234.2
			h234.2V-936.5z M2089.9-926.7l608.9-115.1V-1159c0-142.5,46.8-251.7,142.5-335.6c181.5-160,468.3-126.8,608.9,70.3
			c46.8,66.3,58.5,105.4,68.3,230.3l9.8,150.3l583.5,111.2c569.8,109.3,688.9,134.7,759.1,163.9c33.2,13.7,35.1-19.5,29.3-706.4
			c-5.9-809.9-5.9-804-146.4-843c-99.5-29.3-3188.7-29.3-3286.2-2c-136.6,37.1-134.7,31.2-134.7,835.2v722l74.2-25.4
			C1445.9-801.9,1754.2-864.3,2089.9-926.7z"/>
	</g>
</g>
<g id="Political" class="st0">
	<g transform="translate(0.000000,256.000000) scale(0.100000,-0.100000)" class="st1">
		<path d="M2979.4,82.9v495.2c0,545.1-8.3,582.6-143.6,736.5c-79.1,91.5-255.9,183.1-349.5,183.1h-66.6l66.6,108.2
			c58.3,93.6,66.6,129,72.8,276.7c6.2,137.3,0,191.4-33.3,264.2c-56.2,129-156,235.1-278.8,295.4c-154,77-378.7,77-532.6,0
			c-122.8-60.3-222.6-166.4-278.8-295.4c-33.3-72.8-39.5-126.9-33.3-264.2c6.2-147.7,14.6-183.1,72.8-276.7l66.6-108.2h-295.4H950.9
			l-249.7,249.7C513.9,1934.6,439,1997,399.5,1997c-72.8,0-332.9-260.1-332.9-332.9c0-37.5,87.4-151.9,303.8-401.6l303.8-347.5h362
			h362V499V85l-201.8-6.2l-203.9-6.2v-738.6v-738.6l118.6-6.2l120.7-6.2l4.2-534.7l6.2-534.7h1321.2h1321.2l6.2,534.7l4.2,534.7
			l120.7,6.2l118.6,6.2v738.6l2.8,744.3L2979.4,82.9z M2163.8,2269.6c139.4-70.7,212.2-193.5,212.2-355.8
			c0-230.9-164.4-395.3-395.3-395.3s-395.3,164.4-395.3,395.3s160.2,393.2,391.1,395.3C2045.2,2309.1,2116,2294.5,2163.8,2269.6z
			 M626.3,1551.8l216.4-218.5l823.9-6.2c796.9-6.2,826-8.3,907.1-49.9c95.7-52,135.2-93.6,189.3-195.6
			c33.3-62.4,39.5-135.2,45.8-534.7l8.3-464h-126.9h-126.9v457.7v457.7h-83.2h-83.2V540.6V82.9h-249.7h-249.7V395v312.1l85.3,168.5
			c45.8,93.6,81.1,170.6,77,174.8c-14.6,10.4-139.4,72.8-149.8,72.8c-6.2,0-49.9-74.9-95.7-166.4l-83.2-166.4V436.6V82.9h-83.2
			h-83.2l-4.2,495.2l-6.2,493.1l-387,10.4l-387,10.4l-241.3,276.7c-133.2,151.9-243.4,283-243.4,289.2
			c0,18.7,87.4,110.3,101.9,110.3C405.8,1768.2,507.7,1670.4,626.3,1551.8z M3978.1-666.1v-582.6H2563.3H1148.5v582.6v582.6h1414.8
			h1414.8V-666.1z M3229.1-1415.1h249.7h249.7v-457.7v-457.7H2563.3H1398.2v457.7v457.7h249.7h249.7 M2064-1415.1h499.3h499.3"/>
		<path d="M3299.8,2425.6l-70.7-70.7v-278.8v-276.7l-166.4-166.4c-145.6-143.6-166.4-174.8-162.3-228.9l6.2-62.4l1004.9-6.2
			l1007-4.2l70.7,70.7l70.7,70.7v441.1v441.1l-70.7,70.7l-70.7,70.7h-774h-774L3299.8,2425.6z M4851.9,2288.3
			c37.5-37.5,41.6-68.7,41.6-374.5s-4.2-337.1-41.6-374.5c-39.5-39.5-68.7-41.6-846.8-41.6H3200l97.8,99.9l97.8,99.9v274.6
			c0,247.6,4.2,278.8,41.6,316.2c39.5,39.5,68.7,41.6,707.4,41.6S4812.4,2327.8,4851.9,2288.3z"/>
		<path d="M3562,2080.2V1997h582.6h582.6v83.2v83.2h-582.6H3562V2080.2z"/>
		<path d="M3562,1747.4v-83.2h582.6h582.6v83.2v83.2h-582.6H3562V1747.4z"/>
	</g>
</g>
<g id="Other" class="st0">
	<g transform="translate(0.000000,512.000000) scale(0.100000,-0.100000)" class="st1">
		<path d="M2314.3,5051.3c-583-62.2-1115.3-316.1-1523-722.2c-976.1-976.1-974.4-2564.6,1.6-3537.4
			c671.4-668.2,1662.2-902.4,2561.3-604.3c831.9,276.8,1459.2,976.1,1647.5,1832.6c122.8,568.3,50.8,1141.5-208,1662.2
			c-352.1,707.5-1020.3,1203.7-1806.4,1342.9C2817,5054.6,2476.4,5067.7,2314.3,5051.3z M2953,4632.1
			c445.4-91.7,805.7-289.9,1118.5-612.5c298.1-309.5,478.2-655.1,563.4-1079.2c37.7-193.2,37.7-566.6,0-759.9
			c-172-866.3-828.7-1523-1695-1695c-188.3-37.7-581.4-36-764.8,0c-448.7,93.3-812.3,291.5-1126.7,615.8
			C750.3,1410.8,570.1,1756.3,485,2180.5c-37.7,193.2-37.7,566.6,0,759.9c181.8,912.2,912.2,1600,1827.6,1716.3
			C2461.6,4676.3,2805.6,4663.2,2953,4632.1z"/>
		<path d="M1241.6,2937.1c-289.9-42.6-420.9-407.8-226-624c86.8-95,167-131,291.5-131c152.3,0,278.4,73.7,348.8,206.3
			c37.7,67.1,37.7,276.8,0,343.9C1575.7,2883,1413.5,2961.6,1241.6,2937.1z"/>
		<path d="M2479.7,2935.4c-401.2-77-398-674.7,3.3-750.1c275.1-50.8,502.8,176.9,452,450.4c-27.8,144.1-147.4,273.5-275.1,294.8
			c-32.8,4.9-70.4,11.5-83.5,14.7C2563.2,2946.9,2519,2943.6,2479.7,2935.4z"/>
		<path d="M3747.2,2937.1c-116.3-18-224.4-96.6-283.3-204.7c-37.7-67.1-37.7-276.8,0-343.9c37.7-68.8,108.1-135.9,181.8-175.2
			c86.8-42.6,248.9-42.6,334.1,0c227.6,117.9,289.9,412.7,124.5,594.5C4006,2915.8,3891.3,2956.7,3747.2,2937.1z"/>
	</g>
</g>
<g id="Neighbourhood" class="st0">
	<g transform="translate(0.000000,256.000000) scale(0.100000,-0.100000)" class="st1">
		<path d="M1389.2,2426.3C1110,2139.9,126,1003.2,96.7,931.6c-76.1-183.7-29.3-442.2,99.6-548.1c70.3-59.2,195.3-21.8,283.1,87.2
			c37.1,43.6,72.2,81,78.1,81s11.7-392.4,11.7-871.9c0-980.9,7.8-1055.6,117.2-1117.9c41-21.8,228.4-34.3,509.6-34.3h447.1v-404.8
			c0-423.5,19.5-560.5,87.9-604.1c43-24.9,1616.7-24.9,1659.6,0c68.3,43.6,87.9,180.6,87.9,604.1v404.8h447.1
			c468.6,0,550.6,18.7,593.6,137c15.6,46.7,25.4,339.4,33.2,974.7l9.8,909.3l93.7-96.5c201.1-208.6,404.2-71.6,404.2,274
			c0,68.5-17.6,155.7-41,211.8c-23.4,52.9-267.5,348.8-540.9,657.1c-792.7,893.7-822,924.9-868.9,899.9
			c-23.4-12.5-248-252.2-497.9-535.6c-417.8-470.2-464.7-513.8-546.7-520c-85.9-6.2-105.4,12.5-548.7,513.8
			c-253.8,286.5-478.4,529.4-501.8,541.8C1488.8,2507.3,1445.9,2485.5,1389.2,2426.3z M1656.7,1990.4
			c72.2-84.1,253.8-289.6,402.2-454.6c257.7-292.7,269.4-308.3,230.4-351.9c-46.9-52.9-3.9-93.4-468.6,451.5
			c-210.9,246-314.4,348.8-341.7,342.5c-23.4-9.3-294.8-311.4-605.3-675.7S295.8,645.1,278.3,651.4
			c-95.7,31.1-15.6,143.2,583.8,822.1c337.8,379.9,624.8,688.2,638.5,682C1512.3,2149.2,1582.5,2074.5,1656.7,1990.4z
			 M4261.4,1467.2c611.1-688.2,679.5-784.7,579.9-815.9c-15.6-6.2-285.1,286.5-593.6,650.8c-310.5,364.3-581.9,666.4-605.3,675.7
			c-27.3,6.2-130.8-96.5-341.7-342.5c-464.7-544.9-421.7-504.5-468.6-451.5c-39.1,43.6-27.3,59.2,230.4,351.9
			c148.4,165,335.8,376.8,415.9,470.2c80.1,90.3,148.4,165,152.3,165S3917.8,1853.4,4261.4,1467.2z M1130-230
			c-43.5-113.1-10-240,30.4-298.7C1240-640,1360.9-643.9,1440-610c58.2,33.3,214.7,231.9,208.2,221.7c0-48.5-2,33.9-2-296.2V-1161
			H832.8h-68.3v977.8v977.8l357.3,423.5c195.3,230.4,361.2,417.3,369,414.2c9.8-3.1,142.5-152.6,298.7-333.2
			c154.2-180.6,283.1-333.2,283.1-342.5c0-9.3-54.7-74.7-123-149.5l-121.1-133.9C1828.6,673.2,1160.4-113,1130-230z M3295.3,667.5
			l-123.4,139.6c-68.3,74.7-123,140.1-123,149.5c2,15.6,570.1,682,583.8,685.1c3.9,0,167.9-190,365.1-423.5l359.3-423.5v-977.8
			V-1161h-312.4h-567.3v233.5c4.2,199.3,4.2,490.5,4.2,539.1c7.7,0,115.7-178.6,225.5-230.6c94.8-44.9,189.9,41.7,235.3,109.2
			c46.7,51.4,90.9,162.4,49,279.1C3952.2-121.4,3295.3,667.5,3295.3,667.5L3295.3,667.5z M3175.8,433.4
			c331.9-373.7,578.4-660.2,590.1-688.2c58.8-97.1-10.2-155.7-18-149.4c-7.8,3.1-269.4,305.2-581.9,669.5
			c-310.5,361.2-583.8,660.2-605.3,660.2S2264,623.3,1949.6,255.9c-312.4-367.5-581.9-669.5-595.5-669.5c-43,0-50.8,96.5-11.7,155.7
			c44.9,68.5,1202.8,1370.2,1218.4,1370.2C2566.6,1112.2,2843.9,807.1,3175.8,433.4z M1838.3-2219.7v990.3l2,987.1l355.4,414.2
			c195.3,227.3,365.1,404.8,376.8,398.6c11.7-6.2,177.7-193.1,365.1-414.2l343.6-398.6l2-987.1v-990.3H1838.3z"/>
	</g>
</g>
<g id="Learning" class="st0">
	<g transform="translate(0.000000,256.000000) scale(0.100000,-0.100000)" class="st1">
		<path d="M1954.5,2442.2c-234.4-123-496.1-418.7-580.1-654.8l-33.2-95.2H919.4c-302.7,0-427.7-6-445.3-23.8
			c-13.7-13.9-23.4-77.4-23.4-148.8v-125H349.1c-115.2,0-193.4-39.7-252-131C62,1208.1,60,1140.6,60-401.1s2-1609.2,37.1-1664.7
			c19.5-29.8,62.5-73.4,91.8-93.3c52.7-35.7,105.5-37.7,873-37.7h814.5v-53.6c0-69.4,56.6-156.8,128.9-206.4
			c52.7-33.7,99.6-37.7,554.7-37.7s502,4,554.7,37.7c72.3,49.6,128.9,136.9,128.9,206.4v53.6H4060c765.6,0,818.4,2,871.1,37.7
			c29.3,19.8,72.3,63.5,91.8,93.3c35.2,55.6,37.1,123,37.1,1664.7s-2,1609.2-37.1,1664.7c-58.6,91.3-136.7,131-250,131h-103.5v125
			c0,71.4-9.8,134.9-23.4,148.8c-17.6,17.9-142.6,23.8-445.3,23.8h-421.9l-33.2,95.2c-84,236.1-345.7,531.8-580.1,654.8
			c-179.7,93.3-273.4,81.4-273.4-35.7c0-71.4,15.6-87.3,146.5-150.8c140.6-69.4,324.2-238.1,412.1-379
			c255.9-404.8,210.9-946.5-109.4-1301.6c-54.7-59.5-144.5-140.9-201.2-178.6c-179.7-123-248-232.2-248-400.8v-89.3h-117.2h-117.2
			v509.9v509.9l146.5,152.8c115.2,119.1,146.5,164.7,146.5,210.3c0,73.4-31.2,105.2-103.5,105.2c-41,0-85.9-29.8-171.9-113.1
			L2560,1170.4l-115.2,111.1c-85.9,83.3-130.9,113.1-171.9,113.1c-72.3,0-103.5-31.7-103.5-105.2c0-45.6,31.2-91.3,146.5-210.3
			l146.5-152.8V416.4V-93.6h-117.2H2228v89.3c0,160.7-72.3,283.7-222.7,381c-468.8,303.6-634.8,910.7-388.7,1410.8
			c82,168.7,271.5,361.1,441.4,450.4c156.2,83.3,169.9,97.2,169.9,170.6C2228,2523.6,2134.2,2535.5,1954.5,2442.2z M1290.5,1293.4
			c0-117.1,13.7-252,31.2-323.4c72.3-287.7,273.4-579.4,517.6-748c173.8-119.1,173.8-117.1,173.8-484.1
			c0-291.7,3.9-327.4,44.9-406.8c64.5-131,166-202.4,296.9-214.3l107.4-7.9v-375v-375l-50.8,19.8c-29.3,11.9-396.5,19.8-908.2,19.8
			H645.9V-53.9v1547.7h322.3h322.3V1293.4z M4474.1-53.9v-1547.7h-857.4c-511.7,0-878.9-7.9-908.2-19.8l-50.8-19.8v375v375
			l107.4,7.9c130.9,11.9,232.4,83.3,298.8,214.3c39.1,79.4,43,115.1,43,406.8c0,361.1,2,367.1,152.3,468.3
			c267.6,182.5,470.7,474.2,541,775.8c15.6,69.4,29.3,212.3,29.3,319.5v192.5h322.3h322.3V-53.9z M450.6-278.1
			c0-1121.1,5.9-1480.2,23.4-1498.1s242.2-23.8,892.6-23.8c544.9,0,898.4-7.9,945.3-21.8c107.4-29.8,136.7-91.3,146.5-297.6
			l7.8-176.6h-136.7c-193.4,0-234.4,19.8-250,119.1c-7.8,43.7-33.2,101.2-60.5,129l-48.8,47.6l-828.1,6
			c-646.5,4-832,11.9-851.6,31.7c-19.5,19.8-27.3,325.4-31.2,1508c-3.9,815.5,0,1512,5.9,1547.7c11.7,67.5,56.6,99.2,142.6,101.2
			l43,2V-278.1z M4833.4,1156.5c33.2-33.7,29.3-3085.4-3.9-3119.1c-19.5-19.8-205.1-27.8-851.6-31.7l-828.1-6L3101-2048
			c-27.3-27.8-52.7-85.3-60.5-129c-15.6-99.2-56.6-119.1-250-119.1h-136.7l7.8,176.6c9.8,206.4,39.1,267.9,146.5,297.6
			c46.9,13.9,400.4,21.8,945.3,21.8c650.4,0,875,6,892.6,23.8s23.4,379,23.4,1500v1478.2l72.3-11.9
			C4780.7,1182.3,4821.7,1168.4,4833.4,1156.5z M2892-419c0-202.4-84-269.8-332-269.8s-332,67.5-332,269.8v127h332h332V-419z"/>
	</g>
</g>
<g id="Friends" class="st0">
	<g transform="translate(0.000000,256.000000) scale(0.100000,-0.100000)" class="st1">
		<path d="M2486.3,2474.6c-33.2-36-33.2-760.2,0-796.2c13.7-14.8,46.9-25.4,74.3-25.4c91.9,0,97.8,25.4,97.8,423.5
			s-5.9,423.5-97.8,423.5C2533.3,2500,2500,2489.4,2486.3,2474.6z"/>
		<path d="M1625.9,1860.5c-54.8-59.3-25.4-144,90-275.3c125.2-144,203.4-194.8,260.1-175.8c33.2,12.7,76.3,86.8,76.3,131.3
			c0,6.4-68.4,86.8-150.6,177.9C1749.1,1888,1682.6,1921.9,1625.9,1860.5z"/>
		<path d="M3219.7,1720.8c-107.6-118.6-150.6-180-150.6-218.1c0-69.9,33.2-103.8,105.6-103.8c84.1,0,344.2,281.6,344.2,372.7
			c0,78.3-31.3,114.3-97.8,114.3C3383.9,1885.9,3331.1,1841.5,3219.7,1720.8z"/>
		<path d="M2058,505.3L1680.6,98.8v84.7c0,302.8-221,537.8-508.5,537.8c-234.7,0-418.5-144-481.1-376.9
			c-43-156.7-31.3-429.8,23.5-546.3l39.1-88.9l-129.1-8.5c-217.1-16.9-400.9-154.6-512.4-381.1c-45-88.9-45-101.6-50.8-923.2
			c-3.9-612,0-842.8,17.6-863.9c31.3-40.2,1677.9-44.5,1715-4.2c15.6,16.9,23.5,105.9,23.5,260.5c0,254.1-11.7,285.9-97.8,285.9
			c-80.2,0-97.8-36-97.8-205.4v-154.6h-449.8H722.4v631c0,673.4-2,681.8-97.8,681.8s-97.8-8.5-97.8-681.8v-631H388H251.1L257-1591
			C264.8-835,268.7-805.4,386-667.8c113.4,131.3,185.8,148.2,639.5,156.7l410.7,6.4l504.5,544.2C2480.5,623.9,2484.4,626,2412,359.2
			c-48.9-175.8-95.8-262.6-455.6-844.9L1622-1023.5v-122.8c0-112.2,5.9-127,48.9-148.2c76.3-38.1,146.7,6.4,146.7,91.1
			c0,48.7,84.1,201.2,350,631c191.6,311.3,355.9,586.5,361.8,612c17.6,59.3,45,59.3,62.6,0c5.9-25.4,170.1-300.7,361.8-612
			l350-565.4v-654.3c0-480.7,5.9-660.7,23.5-679.7c37.2-40.2,1683.8-36,1715,4.2c17.6,21.2,21.5,252,17.6,863.9l-5.9,832.2
			l-56.7,112.2c-111.5,213.9-289.4,343-502.6,360l-127.1,8.5l39.1,88.9c54.8,116.5,66.5,389.6,23.5,546.3
			c-134.9,499.7-823.3,506.1-960.2,8.5c-15.6-57.2-29.3-139.8-29.3-180c0-74.1-3.9-72-377.4,332.4l-377.4,406.6h-125.2h-125.2
			L2058,505.3z M4095.8-511.1c338.3-6.4,424.4-14.8,488.9-46.6c105.6-48.7,181.9-131.3,232.7-245.6c39.1-88.9,41.1-133.4,46.9-787.7
			l5.9-694.5h-136.9h-138.8v419.3c0,448.9-3.9,470.1-97.8,470.1c-93.9,0-97.8-21.2-97.8-470.1v-419.3h-449.8h-449.8v631v631
			l-334.4,537.8c-359.8,582.3-406.8,669.1-455.6,844.9c-72.4,266.8-68.4,264.7,473.2-319.7l502.6-544.2L4095.8-511.1z M1328.6,441.8
			c95.8-72,136.9-171.5,136.9-334.6c0-237.2-109.5-381.1-293.3-381.1s-293.3,144-293.3,381.1s109.5,381.1,293.3,381.1
			C1234.7,488.4,1283.6,473.6,1328.6,441.8z M4105.5,441.8c95.8-72,136.9-171.5,136.9-334.6c0-237.2-109.5-381.1-293.3-381.1
			c-183.8,0-293.3,144-293.3,381.1s109.5,381.1,293.3,381.1C4011.7,488.4,4060.6,473.6,4105.5,441.8z"/>
	</g>
</g>
<g id="Family" class="st0">
	<g transform="translate(0.000000,256.000000) scale(0.100000,-0.100000)" class="st1">
		<path d="M3352.8,2485.4c-22.8-6.2-62.2-29-87.1-53.9c-43.6-37.3-47.7-62.2-47.7-236.5c0-105.8-4.1-192.9-8.3-192.9
			c-4.1,0-155.6,72.6-336.1,159.7c-253.1,124.5-348.5,161.8-412.9,159.7c-64.3-2.1-317.4-116.2-1130.7-516.6
			c-576.8-282.2-1064.3-529-1083-545.6c-43.6-35.3-49.8-149.4-12.4-186.7c14.5-14.5,51.9-24.9,87.1-24.9
			c37.3,0,454.4,192.9,1097.5,508.3c753.1,369.3,1049.8,504.1,1080.9,495.8c24.9-8.3,209.5-97.5,410.8-197.1
			c213.7-107.9,394.2-184.6,429.5-184.6c103.7,0,126.6,58.1,126.6,325.7v234.4h166h166v-375.5c0-219.9,8.3-390,20.7-414.9
			c31.1-53.9,749-412.9,829.9-412.9c76.8,0,134.9,78.8,116.2,155.6c-10.4,43.6-74.7,83-352.7,222l-342.3,170.1l-6.2,400.4
			l-6.2,400.4l-58.1,56c-56,58.1-62.2,58.1-331.9,62.2C3518.7,2495.8,3375.6,2491.7,3352.8,2485.4z"/>
		<path d="M1361.1,1350.6C921.2,1145.2,910.9,520.7,1344.5,307c313.3-151.5,699.2,6.2,807,329.9c43.6,132.8,31.1,327.8-29,446.1
			C1981.4,1358.9,1637,1479.2,1361.1,1350.6z M1788.4,1099.6c141.1-91.3,188.8-311.2,97.5-446.1
			c-80.9-118.3-149.4-155.6-286.3-155.6c-186.7,0-309.1,110-327.8,296.7C1244.9,1078.8,1543.6,1255.2,1788.4,1099.6z"/>
		<path d="M3332,614.1c-110-51.9-215.8-157.7-265.6-269.7c-49.8-116.2-53.9-313.3-6.2-427.4c80.9-190.9,284.2-321.6,500-321.6
			c553.9,2.1,730.3,757.3,234.4,1004.1C3659.8,668,3458.6,674.2,3332,614.1z M3709.6,373.4c178.4-118.3,168-402.5-18.7-500
			c-265.6-136.9-541.5,166-377.6,417C3392.2,412.8,3587.2,452.3,3709.6,373.4z"/>
		<path d="M931.6,85C717.9-2.1,583.1-141.1,495.9-365.2c-35.3-91.3-43.6-174.3-53.9-456.4c-12.4-454.4,0-558.1,85.1-639l64.3-64.3
			h510.4c369.3,0,516.6,6.2,535.3,24.9c41.5,41.5,31.1,157.7-14.5,182.6c-22.8,10.4-153.5,20.7-290.5,20.7h-251v358.9
			c0,377.6-8.3,408.7-93.4,408.7s-93.4-31.1-93.4-408.7v-358.9H790.5H686.8v358.9c0,414.9,22.8,520.7,134.9,651.4
			c39.4,47.7,116.2,107.9,172.2,134.9c93.4,45.6,114.1,47.7,605.8,47.7c487.5,0,512.4-2.1,595.4-45.6c110-60.2,205.4-62.2,234.4-8.3
			c35.3,68.5,22.8,120.3-41.5,176.3c-120.3,101.7-228.2,116.2-807,116.2C1072.7,134.8,1045.7,132.8,931.6,85z"/>
		<path d="M2338.2-290.5c-259.3-91.3-369.3-450.2-207.5-678.4C2369.4-1309.1,2915-1166,2944-757.3
			C2968.9-408.7,2664-174.3,2338.2-290.5z M2632.8-560.2c112-93.4,93.4-265.6-39.4-331.9c-118.3-62.2-275.9,16.6-288.4,145.2
			c-8.3,87.1,2.1,118.3,60.2,178.4C2444-489.6,2545.7-487.6,2632.8-560.2z"/>
		<path d="M3056.1-533.2c-33.2-33.2-33.2-153.5,2.1-176.3c12.4-8.3,236.5-20.7,493.8-27l468.9-10.4l99.6-62.2
			c74.7-45.6,118.3-93.4,159.7-174.3c56-107.9,58.1-118.3,58.1-460.6v-350.6h-51.9h-51.9v317.4c0,219.9-8.3,325.7-24.9,342.3
			c-39.4,39.4-136.9,31.1-161.8-14.5c-10.4-22.8-20.7-174.3-20.7-342.3v-302.9h-265.6c-232.4,0-271.8-4.1-300.8-37.3
			c-43.6-47.7-45.6-107.9-6.2-161.8c29-37.3,58.1-39.4,495.8-39.4c516.6,0,547.7,6.2,605.8,128.6c29,60.2,33.2,134.9,27,479.2
			c-6.2,390-8.3,414.9-60.2,522.8c-64.3,136.9-186.7,263.5-321.6,331.9c-99.6,49.8-116.2,51.9-610,58.1
			C3205.4-508.3,3076.8-512.5,3056.1-533.2z"/>
		<path d="M1954.4-1298.8c-134.9-68.5-203.3-139-269.7-288.4c-37.3-80.9-43.6-136.9-43.6-441.9v-350.6l60.2-60.2l60.2-60.2h730.3
			H3222l62.2,62.2l62.2,62.2l-8.3,379.7l-6.2,381.7l-62.2,99.6c-72.6,118.3-207.5,228.2-317.4,259.3c-41.5,10.4-255.2,20.7-473,20.7
			h-396.3L1954.4-1298.8z M2896.3-1502.1c174.3-78.8,217.8-182.6,217.8-520.7c0-151.5-8.3-249-20.7-249s-20.7,91.3-20.7,234.4
			c0,249-24.9,325.7-103.7,325.7c-87.1,0-103.7-51.9-103.7-313.3v-246.9h-352.7h-352.7v246.9c0,197.1-6.2,255.2-33.2,280.1
			c-41.5,43.6-89.2,41.5-136.9-2.1c-31.1-29-37.3-66.4-37.3-280.1c0-234.4-2.1-244.8-43.6-244.8c-43.6,0-43.6,6.2-35.3,275.9
			c8.3,284.2,27,356.8,116.2,435.7c83,76.8,188.8,95.4,512.4,95.4C2761.5-1462.7,2827.9-1471,2896.3-1502.1z"/>
	</g>
</g>
<g id="Faith">
	<g transform="translate(0.000000,256.000000) scale(0.100000,-0.100000)">
		<path d="M2435.6,2465.9c-33.3-37.2-39.2-68.5-39.2-250.7c0-191.9,3.9-211.5,45-250.7c66.6-62.7,174.3-58.8,227.2,7.8
			c35.3,45,41.1,80.3,41.1,252.6c0,182.1-3.9,201.7-45,240.9C2604,2524.7,2490.4,2524.7,2435.6,2465.9z"/>
		<path d="M1207.6,1970.4c-56.8-41.1-74.4-129.3-37.2-201.7c15.7-31.3,82.3-105.8,148.8-166.5c101.8-96,131.2-111.6,195.8-111.6
			c58.8,0,84.2,11.8,115.6,50.9c76.4,96,56.8,152.8-103.8,313.4c-123.4,123.4-154.7,144.9-211.5,144.9
			C1280.1,1999.8,1231.1,1986.1,1207.6,1970.4z"/>
		<path d="M3579.3,1854.9c-123.4-123.4-144.9-154.7-144.9-211.5c0-90.1,66.6-152.8,162.6-152.8c58.8,0,90.1,17.6,190,111.6
			c66.6,60.7,133.2,135.1,148.8,168.4c56.8,109.7-17.6,229.1-141,229.1C3732.1,1999.8,3704.7,1982.2,3579.3,1854.9z"/>
		<path d="M2083,1602.2c-103.8-54.8-156.7-97.9-195.8-160.6c-21.5-35.3-180.2-430.9-352.5-881.3l-313.4-818.6v-568v-569.9
			l-440.7-442.6C375.3-2246.2,340-2289.2,340-2351.9c0-41.1,15.7-84.2,39.2-109.7c41.1-43.1,43.1-43.1,850-43.1H2036l50.9,54.8
			c113.6,121.4,366.2,593.4,428.9,801c11.8,47,29.4,84.2,37.2,84.2c5.9,0,27.4-47,45-103.8c66.6-209.6,311.4-665.9,421.1-783.4
			l50.9-52.9H3877c806.9,0,808.9,0,850,43.1c23.5,25.5,39.2,68.5,39.2,109.7c0,62.7-35.3,105.8-440.7,513.1l-440.7,442.6v569.9
			v569.9l-313.4,816.7c-172.3,450.4-331,846.1-352.5,881.3c-21.5,35.3-76.4,88.1-121.4,119.5c-117.5,78.3-325.1,90.1-456.3,27.4
			l-88.1-43.1l-84.2,41.1C2370.9,1633.6,2161.4,1643.4,2083,1602.2z M2357.2,1275.2c37.2-37.2,39.2-64.6,39.2-585.6V143.2
			l-88.1,11.8c-139.1,13.7-260.5-29.4-362.3-131.2c-127.3-127.3-137.1-180.2-137.1-679.6c0-411.3,2-428.9,43.1-472
			c60.7-64.6,176.3-62.7,229.1,5.9c39.2,49,41.1,76.4,41.1,462.2c0,407.4,0,409.3,49,456.3c60.7,62.7,115.6,62.7,180.2-2l50.9-50.9
			l-11.8-325.1c-21.5-577.8-146.9-1016.4-419.1-1474.7l-92-154.7h-509.2H861l336.9,338.8l336.9,338.8v603.2v601.3l303.6,797.1
			c168.4,438.7,319.2,808.9,336.9,822.6C2224.1,1326.1,2312.2,1320.2,2357.2,1275.2z M2931.1,1290.8
			c17.6-13.7,168.4-383.9,336.9-820.6l303.6-795.1v-605.2v-603.2l336.9-338.8l336.9-338.8H3736h-509.2l-92,154.7
			c-272.2,458.3-397.6,897-419.1,1474.7l-11.8,325.1l50.9,50.9c64.6,64.6,119.5,64.6,180.2,2c49-47,49-47,49-462.2
			c0-401.5,2-419.1,43.1-462.2c60.7-64.6,176.3-62.7,229.1,5.9c39.2,49,41.1,76.4,41.1,474c0,491.6-9.8,544.5-137.1,671.8
			c-101.8,101.8-223.3,144.9-362.3,131.2l-88.1-11.8v546.4c0,521,2,548.4,39.2,585.6C2794,1320.2,2882.1,1326.1,2931.1,1290.8z"/>
		<path d="M682.7,697.4c-31.3-29.4-49-70.5-49-107.7s17.6-78.3,49-107.7c45-45,60.7-49,254.6-49s209.6,3.9,254.6,49
			c64.6,62.7,64.6,152.8,0,215.4c-45,45-60.7,49-254.6,49S727.8,742.5,682.7,697.4z"/>
		<path d="M3914.2,697.4c-31.3-29.4-49-70.5-49-107.7s17.6-78.3,49-107.7c45-45,60.7-49,254.6-49s209.6,3.9,254.6,49
			c64.6,62.7,64.6,152.8,0,215.4c-45,45-60.7,49-254.6,49S3959.3,742.5,3914.2,697.4z"/>
	</g>
</g>
<g id="Empty" class="st0">
</g>
<g id="Boundary" class="st0">
	<rect x="6" y="6" class="st2" width="500" height="500"/>
</g>
</svg>
