<?xml version="1.0" encoding="utf-8"?>
<!-- Generator: Adobe Illustrator 22.1.0, SVG Export Plug-In . SVG Version: 6.00 Build 0)  -->
<svg version="1.1" id="Layer_1" xmlns="http://www.w3.org/2000/svg" xmlns:xlink="http://www.w3.org/1999/xlink" x="0px" y="0px"
	 viewBox="0 0 841.9 595.3" style="enable-background:new 0 0 841.9 595.3;" xml:space="preserve">
<style type="text/css">
	.st0{fill:#545552;}
	.st1{fill:none;stroke:#FFFFFF;stroke-width:1.1037;stroke-miterlimit:10;}
	.st2{opacity:0.1;fill:none;stroke:#FFFFFF;stroke-width:1.1037;stroke-miterlimit:10;}
	.st3{fill:none;stroke:#FFFFFF;stroke-width:1.1037;stroke-miterlimit:10;stroke-dasharray:4.4146;}
	.st4{fill:#FFFFFF;}
	.st5{fill:none;stroke:#FFFFFF;stroke-width:2.2073;stroke-miterlimit:10;}
</style>
<rect x="157.4" y="1.7" class="st0" width="558.3" height="574.4"/>
<line class="st1" x1="202.1" y1="154.9" x2="321.6" y2="154.9"/>
<line class="st2" x1="234.9" y1="210.5" x2="666.1" y2="210.5"/>
<line class="st2" x1="234.9" y1="265.3" x2="666.1" y2="265.3"/>
<line class="st2" x1="234.9" y1="237.9" x2="666.1" y2="237.9"/>
<line class="st2" x1="234.9" y1="320.1" x2="666.1" y2="320.1"/>
<line class="st2" x1="234.9" y1="292.7" x2="666.1" y2="292.7"/>
<line class="st2" x1="234.9" y1="347.5" x2="666.1" y2="347.5"/>
<line class="st2" x1="234.9" y1="374.8" x2="666.1" y2="374.8"/>
<line class="st2" x1="234.9" y1="429.6" x2="666.1" y2="429.6"/>
<line class="st2" x1="234.9" y1="402.2" x2="666.1" y2="402.2"/>
<line class="st2" x1="234.9" y1="457" x2="666.1" y2="457"/>
<line class="st1" x1="551.4" y1="154.9" x2="666.1" y2="154.9"/>
<line class="st3" x1="236.3" y1="360.1" x2="666.1" y2="360.1"/>
<circle class="st4" cx="659.6" cy="457" r="6.5"/>
<circle class="st4" cx="588.6" cy="415.5" r="6.5"/>
<circle class="st4" cx="517.6" cy="210.5" r="6.5"/>
<circle class="st4" cx="446.5" cy="292.7" r="6.5"/>
<circle class="st4" cx="375.5" cy="332" r="6.5"/>
<circle class="st4" cx="304.5" cy="251.6" r="6.5"/>
<circle class="st4" cx="233.5" cy="292.7" r="6.5"/>
<path class="st5" d="M568.3,461.7"/>
<polyline class="st5" points="234.9,292.7 304.5,251.6 375.5,332 446.5,292.7 517.6,210.5 588.6,415.5 659.6,457 "/>
</svg>
