<?xml version="1.0" encoding="utf-8"?>
<!-- Generator: Adobe Illustrator 24.1.0, SVG Export Plug-In . SVG Version: 6.00 Build 0)  -->
<svg version="1.1" id="Layer_1" xmlns="http://www.w3.org/2000/svg" xmlns:xlink="http://www.w3.org/1999/xlink" x="0px" y="0px"
	 viewBox="0 0 406.9 461.9" style="enable-background:new 0 0 406.9 461.9;" xml:space="preserve">
<style type="text/css">
	.st0{stroke:#000000;stroke-width:5;stroke-miterlimit:10;}
	.st1{fill:none;stroke:#000000;stroke-width:15;stroke-miterlimit:10;}
	.st2{fill:none;stroke:#000000;stroke-width:9;stroke-miterlimit:10;}
</style>
<path d="M121.6,221.3c64.5,0,116.7,52.3,116.6,116.8s-52.3,116.7-116.8,116.6c-23.8,0-47-7.3-66.6-20.9c-6.6-5-8.2-13.7-3.6-20.3
	c4.6-6.6,13.7-8.2,20.3-3.6c39.7,27.6,94.3,17.8,121.9-21.9s17.8-94.3-21.9-121.9c-34.8-24.2-81.9-20-111.9,9.9l14,14
	c4.3,4.3,4.2,11.3-0.2,15.6c-2,2-4.7,3.1-7.5,3.1H15.8c-6,0-10.9-4.9-10.9-10.9v-50.2c0-6,4.9-10.9,10.9-10.9c2.9,0,5.7,1.2,7.8,3.2
	l15.5,15.5c21.7-21.8,51.3-34.1,82.1-34.2L121.6,221.3L121.6,221.3z M121.6,279.7c6,0,10.9,4.8,10.9,10.8c0,0,0,0.1,0,0.1v42.9
	l29.2,29.6c4.7,4.3,4.7,11.2,0,15.1c-3.9,4.7-10.8,4.7-15.1,0l-32.8-32.8c-2.1-1.8-3.3-4.5-3.2-7.3v-47.4
	C110.6,284.6,115.5,279.7,121.6,279.7L121.6,279.7z"/>
<path class="st0" d="M116.7,5.1l174.9-0.2H315l87.9,80.5l-2.3,350.9c0,0-170.6-0.2-186.2-0.2s19-12.3,19-12.3l158.7-0.4L392.4,88
	L315,13.6l-191.3,0.5l-64.3,0l-0.6,67.2c0.4,54.3,0.6,128.2,0.1,135.3c-0.9,12.3-11.4,16-11.4,16v-160L46.5,5.2L116.7,5.1z"/>
<line class="st1" x1="83.7" y1="71.2" x2="294.8" y2="71.2"/>
<line class="st1" x1="102.2" y1="128.1" x2="359" y2="128.1"/>
<line class="st1" x1="102.2" y1="185.1" x2="359" y2="185.1"/>
<line class="st1" x1="230.6" y1="248.1" x2="359" y2="248.1"/>
<line class="st1" x1="253.6" y1="315.5" x2="359" y2="315.5"/>
<line class="st1" x1="241.5" y1="374.8" x2="359" y2="374.8"/>
<polygon class="st2" points="311.3,93.2 399.8,92.7 399.8,92.6 310.5,13.2 "/>
</svg>
