<svg id="Layer_1" data-name="Layer 1" xmlns="http://www.w3.org/2000/svg" viewBox="0 0 401.05 452.77"><defs><style>.cls-1,.cls-2,.cls-3,.cls-4{fill:#fff;stroke:#fff;stroke-miterlimit:10;}.cls-2{stroke-width:5px;}.cls-3{stroke-width:15px;}.cls-4{stroke-width:9px;}</style></defs><path class="cls-1" d="M121.56,221.27a116.7,116.7,0,1,1-66.7,212.5c-6.6-5-8.2-13.7-3.6-20.3a14.6,14.6,0,0,1,20.3-3.6A87.58,87.58,0,1,0,59.66,276l14,14a11,11,0,0,1-7.7,18.7H15.76a10.93,10.93,0,0,1-10.9-10.9v-50.2a10.93,10.93,0,0,1,18.7-7.7l15.5,15.5a116.18,116.18,0,0,1,82.1-34.2l.4.1Zm0,58.4a10.86,10.86,0,0,1,10.9,10.82v43l29.2,29.6c4.7,4.3,4.7,11.2,0,15.1-3.9,4.7-10.8,4.7-15.1,0l-32.8-32.8a9.11,9.11,0,0,1-3.2-7.3v-47.4a11,11,0,0,1,11-11Z" transform="translate(-4.36 -2.4)"/><path class="cls-2" d="M116.7,5.12,291.62,4.9H315L402.9,85.45l-2.33,350.88s-170.57-.24-186.17-.24,19-12.26,19-12.26l158.68-.42L392.36,88,315,13.57l-191.28.51-64.3,0-.64,67.25c.45,54.3.57,128.2,0,135.35a18.46,18.46,0,0,1-11.4,16v-160L46.48,5.21Z" transform="translate(-4.36 -2.4)"/><line class="cls-3" x1="79.34" y1="68.76" x2="290.44" y2="68.76"/><line class="cls-3" x1="97.84" y1="125.74" x2="354.64" y2="125.74"/><line class="cls-3" x1="97.84" y1="182.72" x2="354.64" y2="182.72"/><line class="cls-3" x1="226.24" y1="245.66" x2="354.64" y2="245.66"/><line class="cls-3" x1="249.23" y1="313.14" x2="354.64" y2="313.14"/><line class="cls-3" x1="237.14" y1="372.39" x2="354.64" y2="372.39"/><polygon class="cls-4" points="306.9 90.82 395.46 90.28 395.46 90.24 306.16 10.76 306.9 90.82"/></svg>