<?xml version="1.0" encoding="utf-8"?>
<!-- Generator: Adobe Illustrator 24.1.0, SVG Export Plug-In . SVG Version: 6.00 Build 0)  -->
<svg version="1.1" xmlns="http://www.w3.org/2000/svg" xmlns:xlink="http://www.w3.org/1999/xlink" x="0px" y="0px"
	 viewBox="0 0 512 512" style="enable-background:new 0 0 512 512;" xml:space="preserve">
<style type="text/css">
	.st0{display:none;}
	.st1{display:inline;}
	.st2{fill:#669FF4;}
</style>
<g id="_x2D_6" class="st0">
	<g transform="translate(0.000000,512.000000) scale(0.100000,-0.100000)" class="st1">
		<path class="st2" d="M4676.4,2229.5c-19,49-57,95-170,205c-121,120-178,148-281,141c-46-3-87-13-116-27c-31-16-210-188-592-569
			l-548-546l-2,1734l-3,1735l-23,50c-30,65-75,112-137,141c-47,22-61,24-241,24h-191l-61-31c-64-32-110-79-140-146
			c-16-36-17-151-20-1778l-2-1739l-563,561c-619,618-590,593-717,593c-92,0-156-39-287-173c-61-62-119-128-129-147
			c-27-49-27-210-1-260c26-48,1911-1934,1967-1968c40-24,55-27,140-27c73,0,103,4,130,18c48,26,1935,1911,1968,1966
			c21,36,26,59,29,125C4688.4,2163.5,4684.4,2205.5,4676.4,2229.5z"/>
	</g>
</g>
<g id="_x2D_5" class="st0">
	<g transform="translate(0.000000,512.000000) scale(0.100000,-0.100000)" class="st1">
		<path class="st2" d="M4689.9,2775.6c-31,42.4-79.6,77-217.3,154c-147.9,84.6-210.2,96.9-307.9,63.5
			c-43.7-14.8-80.7-35.1-105.1-56.1c-25.8-23.5-154.2-235.9-424.6-702.8l-388-669.2l-450.7,1674.4l-451.9,1675.1l-35.2,42.3
			c-45.8,55-101.4,88.8-168.8,100.7c-51.1,9.1-65.1,7.4-239-39.2l-184.5-49.4l-50.9-45.7c-53.5-47.5-85.8-104.8-97.4-177.3
			c-6.1-38.9,22.7-150.3,440.9-1722.6l448.2-1680.3l-689,396.2c-757.9,436.7-723.4,420.1-846,387.2c-88.9-23.8-140.6-78-232.4-241.4
			c-42.9-75.7-81.8-154.4-86.6-175.4c-13.4-54.3,28.3-209.8,66.3-251.4C707.4,1418.6,3016.3,84.8,3079.2,66.4
			c44.8-12.8,60.1-11.8,142.2,10.2c70.5,18.9,98.5,30.5,120.9,51c39.6,37.5,1374.5,2346.7,1392.1,2408.4c11,40.2,9.8,63.7-4.3,128.2
			C4718.5,2715,4703.8,2754.5,4689.9,2775.6z"/>
	</g>
</g>
<g id="_x2D_4" class="st0">
	<g transform="translate(0.000000,512.000000) scale(0.100000,-0.100000)" class="st1">
		<path class="st2" d="M4558.1,3384.6c-41,32.9-96.9,53.8-249.7,92.5c-164.8,43.4-228.2,39.2-313.9-18.4
			c-38.3-25.6-68.8-54.8-87-81.4c-18.8-29.4-87.9-267.8-228.2-788.8l-201.6-746.8l-868.7,1500.7L1739,4843.4l-44.9,31.8
			c-58.5,41.3-121,59.5-189.1,53.6c-51.7-4.4-64.8-9.7-220.7-99.7l-165.4-95.5l-37.3-57.3c-39.4-59.7-55.8-123.4-48.2-196.4
			c4.1-39.2,60.8-139.3,871.7-1549.8l867.8-1507l-768.1,204.3c-845.1,225.7-807.5,218.6-917.4,155.1c-79.7-46-115.6-111.8-162-293.3
			c-21.8-84.2-39.1-170.4-38.2-191.8c1.1-55.9,81.6-195.4,129.1-225.7c46.5-28.6,2622-719.4,2687.5-720.8
			c46.6-0.8,61.1,4.1,134.7,46.6c63.2,36.5,87.2,55,103.6,80.6c28.6,46.5,720.3,2622.5,721.3,2686.6c0.2,41.7-7,64.1-37.4,122.8
			C4601.5,3333.4,4577.1,3367.8,4558.1,3384.6z"/>
	</g>
</g>
<g id="_x2D_3" class="st0">
	<g transform="translate(0.000000,512.000000) scale(0.100000,-0.100000)" class="st1">
		<path class="st2" d="M4290.2,3875.4c-48.1,21.2-107.5,26.9-265.2,24.7c-170.4-0.7-230.5-21.2-298.4-99
			c-30.4-34.6-52.3-70.7-62.9-101.1c-10.6-33.2-15.6-281.4-16.3-821l-1.4-773.6L2418.5,3330.2l-1229,1224.7L1138,4574
			c-67.2,24.7-132.2,26.2-196.6,2.8c-48.8-17.7-60.1-26.2-187.4-153.4l-135.1-135.1l-21.2-65.1c-22.6-67.9-21.9-133.6,4.2-202.2
			c14.1-36.8,94.8-118.8,1243.1-1271.4l1228.2-1231.1l-794.8-1.4c-874.7-0.7-836.5,2.1-926.3-87.7c-65.1-65.1-82.7-137.9-80.6-325.3
			c0.7-87,6.4-174.7,12.7-195.2c15.6-53.7,129.4-167.6,183.1-184.6c52.3-15.6,2718.8-16.3,2782.5-0.7c45.3,11.3,58,19.8,118.1,79.9
			c51.6,51.6,70,75.7,79.2,104.7c15.6,52.3,17,2719.5,1.4,2781.8c-10.6,40.3-23.3,60.1-67.9,108.9
			C4345.4,3837.2,4312.9,3864.1,4290.2,3875.4z"/>
	</g>
</g>
<g id="_x2D_2" class="st0">
	<g transform="translate(0.000000,512.000000) scale(0.100000,-0.100000)" class="st1">
		<path class="st2" d="M3904.4,4280.2c-51.9,8-110.8-1.9-262.5-44.7c-164.4-44.8-217.2-80.2-262.6-172.9
			c-20.4-41.3-32.2-81.8-34.6-114c-1.6-34.8,57.8-275.9,196.8-797.2l198.8-747.6l-1502.7,865.3L733.6,4134.1l-54.8,5.1
			c-71.3,6.5-134.5-9-190.6-48.1c-42.6-29.7-51.3-40.8-141.3-196.7l-95.5-165.4l-3.7-68.3c-4.3-71.4,13.4-134.8,56.4-194.2
			c23.2-31.9,122.3-90.2,1529.8-906.3l1505-871.2l-767.3-207.1c-844.7-227.1-808.6-214.5-872.1-324.4c-46-79.7-44.2-154.6,6.3-335
			c23.2-83.8,51.4-167.1,62.8-185.2c28.9-47.9,168.4-128.4,224.7-130.9c54.6-1.5,2630.4,688,2687.8,719.5
			c40.8,22.6,50.9,34.1,93.4,107.7c36.5,63.2,48,91.2,49.4,121.6c1.5,54.6-687.5,2631.3-718.6,2687.3c-20.7,36.2-38.1,52-93.8,87.6
			C3967.6,4257.6,3929.2,4275.1,3904.4,4280.2z"/>
	</g>
</g>
<g id="_x2D_1" class="st0">
	<g transform="translate(0.000000,512.000000) scale(0.100000,-0.100000)" class="st1">
		<path class="st2" d="M3424.5,4519.3c-52.2-5.7-106.5-30.5-242-111.1c-147.2-85.8-189-133.6-208.9-234.9c-9-45.2-10-87.4-3.9-119
			c7.4-34.1,127.2-251.5,396.4-719.1l385.6-670.6l-1675.4,446.9L399.5,3557.5l-54.2-9.3c-70.5-12.2-127.6-43.5-171.7-95.8
			c-33.4-39.7-39-52.7-85.6-226.6l-49.4-184.5l14.2-66.9c14.3-70.1,47.8-126.7,104.8-173c30.6-24.8,141.5-55.5,1712.2-479.5
			l1679.2-452l-687.6-398.6c-757.2-438-725.5-416.4-758.4-539.1c-23.8-88.9-2.7-160.8,92.8-322c44.1-75,92.8-148.1,108.6-162.7
			c40.3-38.8,195.9-80.4,250.9-68.3c53.1,12.7,2362.7,1345.3,2410,1390.6c33.5,32.4,40.3,46.1,62.3,128.2
			c18.9,70.5,22.8,100.5,16.3,130.2c-12.7,53.1-1345.1,2363.7-1389.7,2409.8c-29.3,29.6-50.3,40.4-113.2,60.4
			C3491.4,4513.9,3449.8,4520.9,3424.5,4519.3z"/>
	</g>
</g>
<g id="_x2B_0" class="st0">
	<g transform="translate(0.000000,512.000000) scale(0.100000,-0.100000)" class="st1">
		<path class="st2" d="M2888,4677c-49-19-95-57-205-170c-120-121-148-178-141-281c3-46,13-87,27-116c16-31,188-210,569-592l546-548
			l-1734-2l-1735-3l-50-23c-65-30-112-75-141-137c-22-47-24-61-24-241v-191l31-61c32-64,79-110,146-140c36-16,151-17,1778-20l1739-2
			l-561-563c-618-619-593-590-593-717c0-92,39-156,173-287c62-61,128-119,147-129c49-27,210-27,260-1c48,26,1934,1911,1968,1967
			c24,40,27,55,27,140c0,73-4,103-18,130c-26,48-1911,1935-1966,1968c-36,21-59,26-125,29C2954,4689,2912,4685,2888,4677z"/>
	</g>
</g>
<g id="_x2B_1" class="st0">
	<g transform="translate(0.000000,512.000000) scale(0.100000,-0.100000)" class="st1">
		<path class="st2" d="M2331.5,4690.4c-42.4-31-77-79.6-154-217.3c-84.6-147.9-96.9-210.2-63.5-307.9
			c14.8-43.7,35.1-80.7,56.1-105.1c23.5-25.8,235.9-154.2,702.8-424.6l669.2-388l-1674.4-450.7L192.6,2344.9l-42.3-35.2
			c-55-45.8-88.8-101.4-100.7-168.8c-9.1-51.1-7.4-65.1,39.2-239l49.4-184.5l45.7-50.9c47.5-53.5,104.8-85.8,177.3-97.4
			c38.9-6.1,150.3,22.7,1722.6,440.9L3764,2458.1l-396.2-689c-436.7-757.9-420.1-723.4-387.2-846c23.8-88.9,78-140.6,241.4-232.4
			c75.7-42.9,154.4-81.8,175.4-86.6c54.3-13.4,209.8,28.3,251.4,66.3c39.6,37.5,1373.5,2346.4,1391.8,2409.3
			c12.8,44.8,11.8,60.1-10.2,142.2c-18.9,70.5-30.5,98.5-51,120.9c-37.5,39.6-2346.7,1374.5-2408.4,1392.1
			c-40.2,11-63.7,9.8-128.2-4.3C2392.1,4719.1,2352.6,4704.4,2331.5,4690.4z"/>
	</g>
</g>
<g id="_x2B_2" class="st0">
	<g transform="translate(0.000000,512.000000) scale(0.100000,-0.100000)" class="st1">
		<path class="st2" d="M1816.4,4565.8c-32.9-41-53.8-96.9-92.5-249.7c-43.4-164.8-39.2-228.2,18.4-313.9
			c25.6-38.3,54.8-68.8,81.4-87c29.4-18.8,267.8-87.9,788.8-228.2l746.9-201.6l-1500.7-868.7L357.5,1746.7l-31.8-44.9
			c-41.3-58.5-59.5-121-53.6-189.1c4.4-51.7,9.7-64.8,99.7-220.7l95.5-165.4l57.3-37.3c59.7-39.4,123.4-55.8,196.4-48.2
			c39.2,4.1,139.3,60.8,1549.8,871.7l1507,867.8l-204.3-768.1c-225.7-845.1-218.6-807.5-155.1-917.4c46-79.7,111.8-115.6,293.3-162
			c84.2-21.8,170.4-39.1,191.8-38.2c55.9,1.1,195.4,81.6,225.7,129.1c28.6,46.5,719.4,2622,720.8,2687.5
			c0.8,46.6-4.1,61.1-46.6,134.7c-36.5,63.2-55,87.2-80.6,103.6c-46.5,28.6-2622.5,720.3-2686.6,721.3c-41.7,0.2-64.1-7-122.8-37.4
			C1867.5,4609.2,1833.2,4584.8,1816.4,4565.8z"/>
	</g>
</g>
<g id="_x2B_3" class="st0">
	<g transform="translate(0.000000,512.000000) scale(0.100000,-0.100000)" class="st1">
		<path class="st2" d="M1379.6,4312.5c-21.2-48.1-26.9-107.5-24.7-265.2c0.7-170.4,21.2-230.5,99-298.4
			c34.6-30.4,70.7-52.3,101.1-62.9c33.2-10.6,281.4-15.6,821-16.3l773.6-1.4L1924.8,2440.7l-1224.7-1229l-19.1-51.6
			c-24.7-67.2-26.2-132.2-2.8-196.6c17.7-48.8,26.2-60.1,153.4-187.4l135.1-135.1l65.1-21.2c67.9-22.6,133.6-21.9,202.2,4.2
			c36.8,14.1,118.8,94.8,1271.4,1243.1l1231.1,1228.2l1.4-794.8c0.7-874.7-2.1-836.5,87.7-926.3c65.1-65.1,137.9-82.7,325.3-80.6
			c87,0.7,174.7,6.4,195.2,12.7c53.7,15.6,167.6,129.4,184.6,183.1c15.6,52.3,16.3,2718.8,0.7,2782.5c-11.3,45.3-19.8,58-79.9,118.1
			c-51.6,51.6-75.7,70-104.7,79.2c-52.3,15.6-2719.5,17-2781.8,1.4c-40.3-10.6-60.1-23.3-108.9-67.9
			C1417.8,4367.6,1390.9,4335.1,1379.6,4312.5z"/>
	</g>
</g>
<g id="_x2B_4" class="st0">
	<g transform="translate(0.000000,512.000000) scale(0.100000,-0.100000)" class="st1">
		<path class="st2" d="M963.3,3935.8c-8-51.9,1.9-110.8,44.7-262.5c44.8-164.4,80.2-217.2,172.9-262.6c41.3-20.4,81.8-32.2,114-34.6
			c34.8-1.6,275.9,57.8,797.2,196.8l747.6,198.9l-865.3-1502.7L1109.4,764.9l-5.1-54.8c-6.5-71.3,9-134.5,48.1-190.6
			c29.7-42.6,40.8-51.3,196.7-141.3l165.4-95.5l68.3-3.7c71.4-4.3,134.8,13.4,194.2,56.4c31.9,23.2,90.2,122.3,906.3,1529.8
			l871.2,1505l207.1-767.3c227.1-844.7,214.5-808.6,324.4-872.1c79.7-46,154.6-44.2,335,6.3c83.8,23.2,167.1,51.4,185.2,62.8
			c47.9,28.9,128.4,168.4,130.9,224.7c1.5,54.6-688,2630.4-719.5,2687.8c-22.6,40.8-34.1,50.9-107.7,93.4
			c-63.2,36.5-91.2,48-121.6,49.4c-54.6,1.5-2631.3-687.5-2687.3-718.6c-36.2-20.7-52-38.1-87.6-93.8
			C985.9,3998.9,968.3,3960.6,963.3,3935.8z"/>
	</g>
</g>
<g id="_x2B_5">
	<g transform="translate(0.000000,512.000000) scale(0.100000,-0.100000)">
		<path class="st2" d="M673.2,3448.6c5.7-52.2,30.5-106.5,111.1-242c85.8-147.2,133.6-189,234.9-208.9c45.2-9,87.4-10,119-3.9
			c34.1,7.4,251.5,127.2,719.1,396.4l670.6,385.6l-446.9-1675.4L1635.1,423.6l9.3-54.2c12.2-70.5,43.5-127.6,95.8-171.7
			c39.7-33.4,52.7-39,226.6-85.6l184.5-49.4l66.9,14.2c70.1,14.3,126.7,47.8,173,104.8c24.8,30.6,55.5,141.5,479.5,1712.2
			l452,1679.2l398.6-687.6c438-757.2,416.4-725.5,539.1-758.4c88.9-23.8,160.8-2.7,322,92.8c75,44.1,148.1,92.8,162.7,108.6
			c38.8,40.3,80.4,195.9,68.3,250.9c-12.7,53.1-1345.3,2362.7-1390.6,2410c-32.4,33.5-46.1,40.3-128.2,62.3
			c-70.5,18.9-100.5,22.8-130.2,16.3C3111.1,5055.4,800.6,3723,754.5,3678.4c-29.6-29.3-40.4-50.3-60.4-113.2
			C678.7,3515.5,671.7,3473.9,673.2,3448.6z"/>
	</g>
</g>
<g id="_x2B_6" class="st0">
	<g transform="translate(0.000000,512.000000) scale(0.100000,-0.100000)" class="st1">
		<path class="st2" d="M515.6,2897.4c19-49,57-95,170-205c121-120,178-148,281-141c46,3,87,13,116,27c31,16,210,188,592,569l548,546
			l2-1734l3-1735l23-50c30-65,75-112,137-141c47-22,61-24,241-24l191,0l61,31c64,32,110,79,140,146c16,36,17,151,20,1778l2,1739
			l563-561c619-618,590-593,717-593c92,0,156,39,287,173c61,62,119,128,129,147c27,49,27,210,1,260c-26,48-1911,1934-1967,1968
			c-40,24-55,27-140,27c-73,0-103-4-130-18c-48-26-1935-1911-1968-1966c-21-36-26-59-29-125C503.6,2963.4,507.6,2921.4,515.6,2897.4
			z"/>
	</g>
</g>
</svg>
