<svg id="Layer_1" data-name="Layer 1" xmlns="http://www.w3.org/2000/svg" viewBox="0 0 303.69 298.17"><defs><style>.cls-1{fill:none;}.cls-1,.cls-2{stroke:#1d1d1b;stroke-miterlimit:10;}.cls-2,.cls-3{fill:#1d1d1b;}.cls-3{font-size:70px;font-family:PTSerif-Regular, PT Serif;}</style></defs><title>Circle_2</title><circle class="cls-1" cx="149.13" cy="149.13" r="148.54"/><circle class="cls-1" cx="160.42" cy="154.9" r="142.77"/><circle class="cls-1" cx="145.14" cy="145.14" r="144.64"/><circle class="cls-1" cx="154.6" cy="149.09" r="144.64"/><circle class="cls-2" cx="28.23" cy="82.1" r="4.38"/><circle class="cls-2" cx="23.85" cy="110.09" r="2.19"/><circle class="cls-2" cx="2.79" cy="120.87" r="2.19"/><circle class="cls-2" cx="40.85" cy="44.5" r="8.25"/><circle class="cls-2" cx="281.54" cy="225.29" r="8.25"/><circle class="cls-2" cx="177.33" cy="281.54" r="8.25"/><circle class="cls-2" cx="11.03" cy="99.66" r="8.25"/><circle class="cls-2" cx="213.97" cy="281.54" r="2.19"/><circle class="cls-2" cx="252.54" cy="241.45" r="2.19"/><circle class="cls-2" cx="239.07" cy="263.18" r="2.19"/><circle class="cls-2" cx="197.3" cy="293.73" r="2.19"/><circle class="cls-2" cx="285.92" cy="205.08" r="4.38"/><circle class="cls-2" cx="223.57" cy="265.37" r="4.38"/><circle class="cls-2" cx="265.34" cy="252.9" r="4.38"/><circle class="cls-2" cx="11.03" cy="153.25" r="4.38"/><circle class="cls-2" cx="211.78" cy="23.19" r="4.38"/><circle class="cls-2" cx="227.95" cy="23.19" r="2.19"/><circle class="cls-2" cx="236.88" cy="34.07" r="2.19"/><text class="cls-3" transform="translate(61.02 170.09)">Circle</text></svg>