<?xml version="1.0" encoding="utf-8"?>
<!-- Generator: Adobe Illustrator 24.1.0, SVG Export Plug-In . SVG Version: 6.00 Build 0)  -->
<svg version="1.1" id="Capa_1" xmlns="http://www.w3.org/2000/svg" xmlns:xlink="http://www.w3.org/1999/xlink" x="0px" y="0px"
	 viewBox="0 0 512 512" style="enable-background:new 0 0 512 512;" xml:space="preserve">
<style type="text/css">
	.st0{fill:none;}
</style>
<g>
	<g>
		<circle cx="128.5" cy="338.9" r="7.3"/>
	</g>
</g>
<g>
	<g>
		<path d="M125.5,294.3c3,0.4,5.8-1.7,6.3-4.7c1.5-10.3,10.1-18.8,23-22.8c13.9-4.3,33.1-3,44.9,9.7c2.1,2.2,5.6,2.4,7.8,0.3
			c2.2-2.1,2.4-5.6,0.3-7.8c-6.8-7.4-16.1-12.4-26.8-14.5c-3.8-0.7-7.7-1.1-11.6-1.1c-6.1,0-12.2,1-18,2.8
			c-17.2,5.4-28.6,17.3-30.7,31.9C120.3,291.1,122.4,293.9,125.5,294.3z"/>
	</g>
</g>
<g>
	<g>
		<path d="M371.8,282.5c-4.9,2.7-9.8,5.4-14.6,8.1c0,0,4.1,32.7,2.7,49.6c-7,86.2-82.4,156.6-168,157l-0.3,0c-7,0-12.4-2.7-14.7-7.3
			c-2.1-4.3-1.2-9.6,2.3-14.2c13.2-16.8,16.4-37.5,8.8-54.9c3.9-2.6,7.8-5.1,11.5-7.7c0,0,0,0,0,0c23.3-15.9,42.9-31.7,56-44.9
			c10,3.4,20.9,2.3,30.2-3.1c15.2-8.9,35-50.1,38.9-58.2c1-2.2,0.9-4.7-0.3-6.8c-1.2-2.1-3.4-3.4-5.8-3.6c-4.1-0.3-15.6-1.1-28.4-1
			c-15.6,0.1-33.1,1.4-41.4,6.3c-9,5.3-15.3,14-17.4,24.1c-18,4.8-41.5,14.2-66.9,26.7c-14.2,7-28.9,14.9-43.6,23.5
			c-7.4,4.3-14.8,8.8-21.9,13.3c0,0-0.1,0-0.1,0c-61.2-1.4-82.7-45.4-82.3-86c0.7-73.1,65.8-152.3,169.8-152.9
			c22.5-0.1,44.7,4.2,65.3,12.6l6.8-13.1c-22.7-9.4-47.2-14.3-72.2-14.2c-28.2,0.1-54.6,5.4-78.6,15.7
			c-21.9,9.4-41.3,22.8-57.7,39.8c-15.2,15.8-27.2,33.9-35.6,53.8c-8,19-12.3,39.1-12.5,58.1c-0.3,27.7,7.8,51.8,23.4,69.7
			c13.4,15.4,31.9,25.4,54.1,29.3C58.2,416.6,40,431,27,443.5C7.2,462.6,0.5,476,6.2,485.6c6.3,10.7,24.2,10.5,56.4-0.5
			c27.2-9.4,61.1-25.5,95.4-45.6c5.9-3.5,11.8-7,17.5-10.6c4.3,12,1.6,25.8-7.8,37.8c-7,9-8.5,20.3-4,29.7
			c4.8,9.8,15.2,15.6,27.9,15.5h0.3c14.5-0.4,73-3.8,123.2-50.4c50.7-47.1,58-105.8,59.4-120.1C373.6,321.8,372.7,302.2,371.8,282.5
			z M245.2,332.2c0.4-7.4,4.5-14,10.9-17.8c6.9-4.1,30.8-4.7,50.4-3.9c-8.9,17.5-21.2,37.9-28.2,42c-6.5,3.8-14.5,4-21.2,0.5
			c-3.7-1.9-6.8-4.8-8.9-8.5C246,340.8,245,336.5,245.2,332.2z M231.3,341.1c0.8,3.8,2.2,7.5,4.2,10.9c1.9,3.2,4.2,6.1,7,8.6
			c-11.3,11-27.3,23.8-46.1,37c-4.4-4.9-8.3-10.2-11.6-15.9c-3.5-5.9-6.2-12.1-8.3-18.6C197.1,353.1,216.1,345.5,231.3,341.1z
			 M174.5,412.2c-7.8,5-15.8,9.9-24,14.7c-31.7,18.5-63.3,33.8-89,43c-28.2,10.2-39.8,9.6-42.5,8.3c0.2-1.7,2.3-9.3,20.8-26.5
			c15.4-14.3,38-31.2,63.5-47.6c8.1-5.2,16.5-10.3,25-15.3c11.7-6.8,23.4-13.2,34.9-19.1c2.3,6.7,5.3,13.2,8.9,19.4
			c3.5,6,7.6,11.6,12.1,16.8C181,408,177.8,410.1,174.5,412.2z"/>
		<path class="st0" d="M367.5,270.9c6.5,13.6-10.3,19.8-10.3,19.8c-6.2-31.5-20.8-60.5-43.1-84.5c-17.6-19-39-33.6-62.6-43.1
			l6.8-13.1c25,10.3,47.8,26,66.5,46.2C345,217.9,361,257.3,367.5,270.9z"/>
	</g>
</g>
<g>
	<g>
		<path d="M246.6,466.3c16.2-0.1,29.3-13.3,29.2-29.5c-0.1-16.2-13.3-29.3-29.5-29.2c-16.2,0.1-29.3,13.3-29.2,29.5
			S230.4,466.4,246.6,466.3z M246.4,422.2c8.1,0,14.7,6.5,14.8,14.6c0,8.1-6.5,14.7-14.6,14.8c-8.1,0-14.7-6.5-14.8-14.6
			C231.8,428.9,238.3,422.2,246.4,422.2z"/>
	</g>
</g>
<g>
	<g>
		<path d="M208.7,225c16.2-0.1,29.3-13.3,29.2-29.5s-13.3-29.3-29.5-29.2s-29.3,13.3-29.2,29.5S192.5,225.1,208.7,225z M208.5,180.9
			c8.1,0,14.7,6.5,14.8,14.6c0,8.1-6.5,14.7-14.6,14.8c-8.1,0-14.7-6.5-14.8-14.6C193.8,187.6,200.4,181,208.5,180.9z"/>
	</g>
</g>
<g>
	<g>
		<path d="M120.6,240.1c16.2-0.1,29.3-13.3,29.2-29.5s-13.3-29.3-29.5-29.2c-16.2,0.1-29.3,13.3-29.2,29.5
			C91.2,227.1,104.4,240.2,120.6,240.1z M120.4,196.1c8.1,0,14.7,6.5,14.8,14.6s-6.5,14.7-14.6,14.8c-8.1,0-14.7-6.5-14.8-14.6
			C105.7,202.7,112.3,196.1,120.4,196.1z"/>
	</g>
</g>
<g>
	<g>
		<path d="M62.2,313.9c16.2-0.1,29.3-13.3,29.2-29.5S78.1,255,61.9,255.1s-29.3,13.3-29.2,29.5C32.8,300.9,46,314,62.2,313.9z
			 M62,269.8c8.1,0,14.7,6.5,14.8,14.6c0,8.1-6.5,14.7-14.6,14.8c-8.1,0-14.7-6.5-14.8-14.6C47.3,276.5,53.9,269.8,62,269.8z"/>
	</g>
</g>
<path d="M499.1,245.3l-16.8-20.2c-0.6-0.7-1.3-1.2-2.1-1.6l-28.6-12.8c2.4-9.2,3.6-19,3.4-29c-0.5-20.7-7-39.8-17.7-55.8
	c-0.3-1.1-1-2.1-1.9-2.8c-19.6-27.4-52-45-88.2-44.1c-14.1,0.3-27.7,3.4-40.4,9.1l-34-51.4c0.9-2.8,1.3-5.7,1.2-8.6
	C273.6,13,261,1,245.8,1.3c-15.2,0.4-27.2,13-26.8,28.1c0.3,13.8,11,25.1,24.4,26.6l34.1,51.5c-5.9,5.6-11.1,11.8-15.6,18.5
	l-56.2-25c-3.8-13-16.8-21.6-30.5-19.5c-15,2.3-25.3,16.3-23.1,31.3c2.3,15,16.3,25.3,31.3,23.1c2.8-0.4,5.6-1.3,8.2-2.6l56,24.9
	c-2.4,9.3-3.4,18.9-3.2,28.5c0,0.9,0.1,1.8,0.1,2.7c-0.1,0.6,0,1.3,0.1,1.9c0.4,6.1,1.3,12,2.7,17.7l-16.3,9.4
	c-19.4,11.2-28,34.6-20.4,55.6c5.2,14.4,16.8,24.6,30.5,28.6l10.3-9.9c-13.1-1-25-9.5-29.8-22.6c-5.7-15.7,0.7-33.1,15.2-41.4
	l13.9-8c15.1,41.1,55.1,70.1,101.3,69c9.8-0.2,19.3-1.9,28.3-4.6c0.1,0,0.1,0,0.2-0.1c3.8-1.2,7.6-2.6,11.2-4.2l24.5,37
	c0.5,0.8,1.2,1.4,2,1.9l22.8,13c1,0.5,2,0.8,3.1,0.8c1.1,0,2.2-0.4,3.1-1c1.8-1.2,2.8-3.4,2.6-5.6l-3.2-25.9
	c-0.1-0.9-0.4-1.8-0.9-2.5l-24.5-37c6-5.6,11.3-11.8,15.9-18.6l29.1,13c0.8,0.3,1.7,0.5,2.5,0.5l0.2,0l26-1.3
	c2.2-0.1,4.2-1.5,5.1-3.5C500.8,249.4,500.5,247,499.1,245.3z M431,138.3c3.2,5.6,5.8,11.7,7.8,18c-18.2,7.7-36.2,13.5-53.9,17.4
	c-0.8-1-1.6-2.1-2.4-3.1C393.7,165.9,416.7,154.9,431,138.3z M418.6,121.2c2,2.2,3.9,4.4,5.6,6.8c-13.2,17.5-39.8,29.1-48.9,32.7
	c-1.7-2.5-3.4-5-5-7.6C381.5,148.5,404.3,137.6,418.6,121.2z M372,176.2c-8,1.3-16,2.2-23.8,2.8c2.6-8.1,5.7-16.1,9.5-24
	C362.1,162.3,366.9,169.3,372,176.2z M410.2,113c-13.2,15.5-36.4,26.1-45.8,29.9c0,0,0-0.1-0.1-0.1c8.8-14.6,20.2-27.7,35.1-37.7
	C403.1,107.5,406.7,110.1,410.2,113z M320.5,95.4c-1.7,2-3.3,4-4.9,6.1l-2.3-3.4C315.7,97.1,318,96.2,320.5,95.4z M251.6,47.1
	c-1.1-1.7-3-2.7-5-2.6c-8.5,0.1-15.6-6.8-15.8-15.3c-0.2-8.7,6.7-15.9,15.3-16.1c8.7-0.2,15.9,6.7,16.1,15.3
	c0.1,2.2-0.4,4.5-1.4,6.7c-0.8,1.8-0.6,4,0.5,5.6l47.1,71.2c-1.1,1.8-2.2,3.5-3.2,5.3c-0.1,0.1-0.1,0.2-0.2,0.3
	c-1,1.7-1.9,3.5-2.8,5.2c-0.1,0.1-0.2,0.3-0.2,0.4L251.6,47.1z M284,117.6l12,18.1c-0.7,1.6-1.3,3.2-1.9,4.8l-21.3-9.5
	C276.1,126.2,279.9,121.7,284,117.6z M277.1,243.1c-3.9-4.8-7.3-9.9-10.2-15.3c3.1,1.1,6.5,2.3,10.3,3.4
	C277.1,235.5,277,239.5,277.1,243.1z M277.7,219c-7.4-2.3-13.1-4.7-17.3-6.7c-1.2-3.9-2.3-8-3-12.2c5.2,2.3,12.3,5,21.2,7.5
	C278.3,211.6,278,215.4,277.7,219z M280.1,195.9c-11.9-3.5-20-7.4-23.9-9.4v0c-0.2-7.9,0.6-15.8,2.4-23.4l25.4,11.3
	C282.3,181.7,281,189,280.1,195.9z M193.7,121.4c-0.8-0.4-1.7-0.5-2.5-0.5c-1.1,0-2.2,0.4-3.1,1c-2,1.3-4.1,2.2-6.3,2.5
	c-8.6,1.3-16.6-4.6-17.9-13.2c-1.3-8.6,4.6-16.6,13.2-17.9c8.5-1.3,16.5,4.6,17.8,13c0.3,2,1.6,3.6,3.4,4.4l91.8,40.8
	c-1.2,3.6-2.3,7.4-3.3,11.2L193.7,121.4z M301,264c-4.1-2.5-8.1-5.4-11.8-8.5c0,0,0,0,0,0c-0.8-14.5-1.2-47.8,7.1-82.8
	c0-0.1,0.1-0.2,0.1-0.3c1.9-7.7,4-15.1,6.5-22c0-0.1,0-0.2,0.1-0.3c1.5-4.1,3.1-8.1,4.9-12.1c0.1-0.1,0.2-0.3,0.2-0.4
	c3.6-8,7.7-15.5,12.2-22.3c0.1-0.1,0.1-0.2,0.2-0.3c5.7-8.5,12.3-16.3,20.2-23.2c0.2-0.1,0.3-0.3,0.5-0.5c2.1-0.2,4.2-0.3,6.4-0.4
	c4.1-0.1,8.2,0.1,12.2,0.5c-26.7,22-44.6,55.7-53.3,100.3C300.4,221.7,300.3,249.2,301,264z M313.1,270.3
	c-1.3-19.2-5.7-129.8,62.1-176c4.4,1.2,8.6,2.8,12.7,4.6c-9.5,7.4-22.8,20.1-34.7,39.9c-0.5,0.6-1,1.3-1.2,2
	c-16.6,28.5-30.2,71.2-27.4,133.5C320.6,273.2,316.8,271.9,313.1,270.3z M351.9,277.7c-5.2,0.1-10.4-0.2-15.4-0.9
	c-0.3-5.5-0.5-14.2-0.1-24.8c8.8,8.7,18.4,16.9,28.6,24.5C360.7,277.2,356.3,277.6,351.9,277.7z M391.3,267.9
	c-0.2,0.1-0.3,0.2-0.5,0.3c-3.5,1.7-7.1,3.3-10.9,4.5c-14.7-10-28-21.3-39.8-33.6h0.4c9.6-0.2,19.2-1.1,29-2.5
	c9.3,9.4,19.4,18.3,30.3,26.4C397.1,264.8,394.3,266.4,391.3,267.9z M435.1,303.7l1.6,12.8l-11.4-6.5l-22.9-34.7
	c3.3-1.9,6.5-4.1,9.6-6.3c0,0,0.1,0,0.1-0.1L435.1,303.7z M429.8,232.3c-0.1,0.1-0.1,0.2-0.1,0.3c-5.3,8.8-12,16.6-19.8,23.2
	c-9.2-6.7-18-13.9-26-21.6c12-2.4,24.2-5.7,36.4-9.8c3.2,2.5,6.6,4.9,10,7.2C430,231.8,429.9,232.1,429.8,232.3z M435.5,221
	c-0.7-0.5-1.4-0.9-2-1.4c1-0.4,2.1-0.8,3.1-1.2C436.3,219.2,435.9,220.1,435.5,221z M441.1,203.8c-0.2,0.1-0.3,0.1-0.5,0.2
	c-35.1,15-69.6,22.9-102.4,23.4c0.5-4,1-8.1,1.7-12.3c23.9-0.6,59.8-5.5,103.1-23.6C442.5,195.7,441.9,199.8,441.1,203.8z
	 M441.2,179.5c-41.5,17.8-75.9,22.9-99.2,23.8c0.8-4.1,1.8-8.2,2.9-12.4c31.4-1.5,63.9-9.2,96.9-23.1c0.6,3.7,1.1,7.5,1.3,11.3
	C442.4,179.1,441.8,179.2,441.2,179.5z M469.7,244.4l-26.5-11.8c1.8-3.4,3.4-7,4.8-10.6l26.2,11.7l8.4,10.1L469.7,244.4z"/>
<line class="st0" x1="241.1" y1="302.6" x2="209.6" y2="332.9"/>
<line class="st0" x1="266.9" y1="277.8" x2="251.5" y2="292.6"/>
</svg>
