<svg height="512" viewBox="0 0 60 61" width="512" xmlns="http://www.w3.org/2000/svg"><g id="047---Karaoke" transform="translate(-1)"><path id="Shape" d="m29.12 24.88c-.8579473-.8568812-2.1473683-1.1130328-3.2676941-.6491479-1.1203257.4638849-1.8512394 1.5565813-1.8523059 2.7691479.0007002.7953814.3172301 1.5579306.88 2.12 1.1535517.9049092 2.4518673 1.6081635 3.84 2.08.7010596.2044757 1.4578344.0105927 1.9742136-.5057864.5163791-.5163792.7102621-1.273154.5057864-1.9742136-.4693344-1.3892249-1.1728091-2.6879474-2.08-3.84zm-2.83 2.83c-.3877236-.3900375-.3877236-1.0199625 0-1.41.1877666-.1893127.4433625-.2957983.71-.2957983s.5222334.1064856.71.2957983c.6637706.9199814 1.1924635 1.9302227 1.57 3-1.0677047-.3839926-2.0746688-.9194685-2.99-1.59z"/><path id="Shape" d="m58.52 57.11c-1.3829987-1.4016661-3.5804003-1.5883179-5.18-.44l-2.8 2c-.8670764.6360095-2.0818592.472566-2.75-.37l-.48-.63c-.340765-.4155985-.499926-.9508551-.4416081-1.4851227.058318-.5342677.3292068-1.0225822.7516081-1.3548773 1.2705697-1.0250722 2.0685897-2.5236164 2.21-4.15.14-2.42-1.39-3.61-3-5.21 1.1787014-1.7823723 1.0402044-4.1286743-.34-5.76l-18.3-22.4c.2213218-.704164.0368044-1.4729863-.48-2l-3.71-3.77c-.2678582-6.35127455-5.6337254-11.28285793-11.985-11.01499983-6.35127455.2678581-11.28285801 5.63372527-11.015 11.98499983.01288733 5.9795503 4.58375694 10.9624053 10.54 11.49l3.75 3.75c.5249109.5203421 1.2940065.7087705 2 .49l22.36 18.26c1.6354049 1.3866795 3.9892211 1.5292117 5.78.35 1.41 1.41 2.49 2.18 2.4 3.68-.108269 1.0532326-.6296995 2.0205762-1.45 2.69-.8403869.6596213-1.3819831 1.6280136-1.5040841 2.6893532-.122101 1.0613395.1854408 2.1274203.8540841 2.9606468l.49.63c1.3278887 1.6732964 3.7362396 2.0079119 5.47.76l2.81-1.95c.7993594-.5825541 1.9044975-.4932929 2.6.21l2.19 2.19c.1877666.1893127.4433625.2957983.71.2957983s.5222334-.1064856.71-.2957983c.3877236-.3900375.3877236-1.0199625 0-1.41zm-46.02-35.11c-1.8331219-.000889-3.62624265-.5360452-5.16-1.54 2-.86 4.41-2.8 7.62-6 2.92-2.92 4.67-5.25 5.43-7.24 1.9403397 2.9146271 2.1221318 6.6597156.4732098 9.7485707s-4.8617992 5.021769-8.3632098 5.0314293zm0-19c2.3254854-.0018361 4.5694638.8565747 6.3 2.41-.23 1.81-1.94 4.31-5.26 7.63-3.66 3.66-6.34 5.63-8 5.9-2.55440306-2.7701587-3.23010199-6.7882177-1.72226781-10.24150464 1.50783418-3.4532869 4.91415636-5.68898287 8.68226781-5.69849536zm1.76 20.85c4.9405406-.773938 8.816062-4.6494594 9.59-9.59l2.44 2.45-9.58 9.59zm26.67 21.15-22-18 8-8 18 22c.8417642 1.1384689.7238278 2.72149-.2773411 3.7226589s-2.58419 1.1191053-3.7226589.2773411z"/><path id="Shape" d="m47.52 1.07-6 1.5c-.8922448.22058554-1.5192896 1.0208927-1.52 1.94v6.49c-2.5651247.5241629-4.2915505 2.9383473-3.9583075 5.5351839.3332429 2.5968367 2.6132989 4.4968833 5.2276574 4.3563813 2.6143586-.1405021 4.6776435-2.2739705 4.7306501-4.8915652v-7.49l2.48-.63c.8709497-.21486688 1.4922891-.98336564 1.52-1.88v-3c-.0035359-.61292424-.2879288-1.19038376-.7716449-1.56682413-.4837161-.37644036-1.1133375-.51029033-1.7083551-.36317587zm.48 4.93-3.24.81c-.4571833.11281553-.7737136.52930282-.76 1v8.19c.0106206 1.5187867-1.1155054 2.8058985-2.622245 2.9971091-1.5067397.1912106-2.9186696-.7738128-3.287755-2.2471091-.2011918-.8013911-.0719557-1.6500137.3586694-2.3551859.4306251-.7051721 1.1265239-1.2077528 1.9313306-1.3948141.9542164-.1844982 1.6376728-1.0282715 1.62-2v-6.49l6-1.51z"/><path id="Shape" d="m58.52 13.07-6 1.5c-.8922448.2205855-1.5192896 1.0208927-1.52 1.94v6.49c-1.3375934.3013152-2.4975213 1.1285243-3.2181108 2.2950138s-.9411373 2.5739931-.6118892 3.9049862c.5302526 2.2358552 2.5321534 3.8108497 4.83 3.8 2.7614237 0 5-2.2385763 5-5v-7.5l2.48-.63c.8674788-.2138509 1.4878963-.9771277 1.52-1.87v-3c-.0035359-.6129242-.2879288-1.1903838-.7716449-1.5668241-.4837161-.3764404-1.1133375-.5102904-1.7083551-.3631759zm.48 4.93-3.24.81c-.4571833.1128155-.7737136.5293028-.76 1v8.19c.0106206 1.5187867-1.1155054 2.8058985-2.622245 2.9971091-1.5067397.1912106-2.9186696-.7738128-3.287755-2.2471091-.2011918-.8013911-.0719557-1.6500137.3586694-2.3551859.4306251-.7051721 1.1265239-1.2077528 1.9313306-1.3948141.9542164-.1844982 1.6376728-1.0282715 1.62-2v-6.49l6-1.51z"/><path id="Shape" d="m20.61 35-14 2.83c-.96616866.1716094-1.66512215 1.0188257-1.65 2v11.17c-2.56512473.5241629-4.29155048 2.9383473-3.95830751 5.5351839.33324296 2.5968367 2.61329887 4.4968833 5.22765745 4.3563813 2.61435858-.1405021 4.67764346-2.2739705 4.73065006-4.8915652v-11.69l6.04-1.31v4c-1.3353442.3033419-2.4921382 1.1319364-3.2090838 2.2986195s-.9335608 2.5730326-.6009162 3.9013805c.6693666 2.3745745 2.9706864 3.9059838 5.4195479 3.6064289 2.4488614-.2995549 4.313193-2.3405241 4.3904521-4.8064289v-15c.0116477-.6054804-.2516762-1.1836306-.7161077-1.5722763-.4644316-.3886456-1.0799476-.5459262-1.6738923-.4277237zm.39 17c-.0158432 1.2770504-.8384616 2.4040667-2.0499033 2.80844s-2.5460848-.0025596-3.3258305-1.0140463-.8336262-2.4057477-.1342662-3.4743937c.4231664-.679769 1.1060988-1.1567377 1.89-1.32.9542164-.1844982 1.6376728-1.0282715 1.62-2v-4c.0123043-.6076182-.2523403-1.187867-.7192213-1.5769345-.4668809-.3890674-1.0853403-.5447386-1.6807787-.4230655l-6 1.3c-.96218505.1759347-1.65595251 1.0219925-1.64 2v11.7c-.01584321 1.2770504-.83846161 2.4040667-2.04990329 2.80844-1.21144169.4043733-2.54608483-.0025596-3.32583054-1.0140463s-.83362621-2.4057477-.13426617-3.4743937c.43228642-.6887576 1.13136716-1.1668853 1.93-1.32.95421641-.1844982 1.63767276-1.0282715 1.62-2v-11.16l14-2.84z"/></g></svg>