<?xml version="1.0" encoding="utf-8"?>
<!-- Generator: Adobe Illustrator 24.1.0, SVG Export Plug-In . SVG Version: 6.00 Build 0)  -->
<svg version="1.1" id="Capa_1" xmlns="http://www.w3.org/2000/svg" xmlns:xlink="http://www.w3.org/1999/xlink" x="0px" y="0px"
	 viewBox="0 0 61.9 61.9" style="enable-background:new 0 0 61.9 61.9;" xml:space="preserve">
<style type="text/css">
	.st0{fill:#010002;}
	.st1{fill:none;}
	.st2{fill:none;stroke:#000000;stroke-width:2;stroke-miterlimit:10;}
</style>
<g>
	<g>
		<g>
			<path d="M7,14.4h4.1c0.6,0,1-0.5,1-1V9.2c0-0.6-0.5-1-1-1H7c-0.6,0-1,0.5-1,1v4.1C6,13.9,6.4,14.4,7,14.4z M8,10.2h2.1v2.1H8
				V10.2z"/>
			<path d="M15.3,14.4h4.1c0.6,0,1-0.5,1-1V9.2c0-0.6-0.5-1-1-1h-4.1c-0.6,0-1,0.5-1,1v4.1C14.3,13.9,14.7,14.4,15.3,14.4z
				 M16.3,10.2h2.1v2.1h-2.1V10.2z"/>
			<path d="M23.6,14.4h4.1c0.6,0,1-0.5,1-1V9.2c0-0.6-0.5-1-1-1h-4.1c-0.6,0-1,0.5-1,1v4.1C22.5,13.9,23,14.4,23.6,14.4z M24.6,10.2
				h2.1v2.1h-2.1V10.2z"/>
			<path d="M7,22.6h4.1c0.6,0,1-0.5,1-1v-4.1c0-0.6-0.5-1-1-1H7c-0.6,0-1,0.5-1,1v4.1C6,22.2,6.4,22.6,7,22.6z M8,18.5h2.1v2.1H8
				V18.5z"/>
			<path d="M15.3,22.6h4.1c0.6,0,1-0.5,1-1v-4.1c0-0.6-0.5-1-1-1h-4.1c-0.6,0-1,0.5-1,1v4.1C14.3,22.2,14.7,22.6,15.3,22.6z
				 M16.3,18.5h2.1v2.1h-2.1V18.5z"/>
			<path d="M23.6,22.6h4.1c0.6,0,1-0.5,1-1v-4.1c0-0.6-0.5-1-1-1h-4.1c-0.6,0-1,0.5-1,1v4.1C22.5,22.2,23,22.6,23.6,22.6z
				 M24.6,18.5h2.1v2.1h-2.1V18.5z"/>
			<path d="M7,30.9h4.1c0.6,0,1-0.5,1-1v-4.1c0-0.6-0.5-1-1-1H7c-0.6,0-1,0.5-1,1v4.1C6,30.5,6.4,30.9,7,30.9z M8,26.8h2.1v2.1H8
				V26.8z"/>
			<path d="M15.3,30.9h4.1c0.6,0,1-0.5,1-1v-4.1c0-0.6-0.5-1-1-1h-4.1c-0.6,0-1,0.5-1,1v4.1C14.3,30.5,14.7,30.9,15.3,30.9z
				 M16.3,26.8h2.1v2.1h-2.1V26.8z"/>
			<path d="M23.6,30.9h4.1c0.6,0,1-0.5,1-1v-4.1c0-0.6-0.5-1-1-1h-4.1c-0.6,0-1,0.5-1,1v4.1C22.5,30.5,23,30.9,23.6,30.9z
				 M24.6,26.8h2.1v2.1h-2.1V26.8z"/>
			<path d="M7,39.2h4.1c0.6,0,1-0.5,1-1V34c0-0.6-0.5-1-1-1H7c-0.6,0-1,0.5-1,1v4.1C6,38.8,6.4,39.2,7,39.2z M8,35.1h2.1v2.1H8V35.1
				z"/>
			<path d="M15.3,39.2h4.1c0.6,0,1-0.5,1-1V34c0-0.6-0.5-1-1-1h-4.1c-0.6,0-1,0.5-1,1v4.1C14.3,38.8,14.7,39.2,15.3,39.2z
				 M16.3,35.1h2.1v2.1h-2.1V35.1z"/>
			<path d="M23.6,39.2h4.1c0.6,0,1-0.5,1-1V34c0-0.6-0.5-1-1-1h-4.1c-0.6,0-1,0.5-1,1v4.1C22.5,38.8,23,39.2,23.6,39.2z M24.6,35.1
				h2.1v2.1h-2.1V35.1z"/>
			<path d="M7,47.5h4.1c0.6,0,1-0.5,1-1v-4.1c0-0.6-0.5-1-1-1H7c-0.6,0-1,0.5-1,1v4.1C6,47,6.4,47.5,7,47.5z M8,43.4h2.1v2.1H8V43.4
				z"/>
			<path d="M15.3,47.5h4.1c0.6,0,1-0.5,1-1v-4.1c0-0.6-0.5-1-1-1h-4.1c-0.6,0-1,0.5-1,1v4.1C14.3,47,14.7,47.5,15.3,47.5z
				 M16.3,43.4h2.1v2.1h-2.1V43.4z"/>
			<path d="M23.6,47.5h4.1c0.6,0,1-0.5,1-1v-4.1c0-0.6-0.5-1-1-1h-4.1c-0.6,0-1,0.5-1,1v4.1C22.5,47,23,47.5,23.6,47.5z M24.6,43.4
				h2.1v2.1h-2.1V43.4z"/>
			<path d="M32.9,59.9V6.1h1c0.6,0,1-0.5,1-1V0.9c0-0.6-0.5-1-1-1H0.8c-0.6,0-1,0.5-1,1V5c0,0.6,0.5,1,1,1h1v53.9H0v1.9h61.9l0-1.9
				H32.9z M1.8,1.9h31.1V4H1.8V1.9z M16.3,59.9h-4.1v-8.3h4.1V59.9z M22.5,59.9h-4.1v-8.3h4.1V59.9z M30.8,59.9h-6.2v-9.3
				c0-0.6-0.5-1-1-1H11.1c-0.6,0-1,0.5-1,1v9.3H3.9V6.1h26.9V59.9z"/>
		</g>
	</g>
</g>
<g>
	<g>
		<path class="st0" d="M48.3,5c-9,0.8-15.6,5.3-19.5,11.8C26.2,20,21,29.9,19.2,35.1c-3.4,6.5-6.4,14.1-8.7,21.1
			c-1.4,4.2,5,7,6.4,2.7c1.7-5.2,3.8-10.8,6.2-16c2.4,5.3,4.8,10.5,7.3,15.7c2,4,8,0.5,6-3.5c-2.7-5.3-5.1-10.8-7.5-16.2
			c0-0.1,0.1-0.2,0.1-0.3c0.4,0.1,0.9,0.2,1.3,0.1c3.7-0.7,7.4-1.4,11.1-2.1c1.6-0.3,2.2-2,1.9-3.4c-0.8-4.2-3.1-7.1-6.1-9.8
			c-0.4-1.5-1.9-2.8-3.5-4.1c3.3-5.3,8.7-8.2,15.7-8.8C53,10.1,51.8,4.7,48.3,5z M34.8,28.7c0.9,1,1.7,2,2.3,3.1
			c-1.8,0.3-3.6,0.7-5.4,1C32.6,31.3,33.6,30,34.8,28.7z"/>
		<circle class="st0" cx="42.5" cy="19.1" r="4.8"/>
	</g>
</g>
<g id="XMLID_1032_">
	<g id="XMLID_140_">
		<path id="XMLID_830_" d="M62,36.3c-0.1-1-0.4-2-0.9-2.8l-0.9-1.2c-1.3-1.4-3.1-2.3-5.1-2.3c-3.3,0-6,2.3-6.7,5.4
			c-0.6-0.2-1.3-0.4-1.9-0.4c-2.8,0-5.2,2.4-5.2,5.3c0,0.6,0.1,1.1,0.2,1.6c-1.3,1.3-2,3.1-2,5c0,3.7,2.8,6.7,6.3,7.1v6.3h-3
			c-0.4,0-0.6,0.3-0.6,0.7c0,0.4,0.3,0.7,0.6,0.7h19.1v-1.3h-7.4c0-0.2-0.1-0.4-0.1-0.7c0-1.4,1.1-2.5,2.4-2.5
			c0.4,0,0.8,0.1,1.2,0.3c0.2,0.1,0.4,0.1,0.5,0c0.2-0.1,0.3-0.2,0.4-0.4c0.4-1.1,1.5-1.8,2.6-1.8c0.1,0,0.3,0,0.4,0V54
			c-0.1,0-0.3,0-0.4,0C60,54,58.7,54.8,58,56c-0.4-0.1-0.8-0.2-1.2-0.2c-0.4,0-0.7,0.1-1.1,0.2v-2.6c1.9-0.2,3.6-1.2,4.8-2.6
			c0.5,0.3,1,0.6,1.5,0.8v-1.5c-0.2-0.1-0.5-0.3-0.7-0.4c0.4-0.7,0.6-1.5,0.7-2.3L62,36.3z M50.1,51.3c-0.9,0.8-1.9,1.3-3,1.4v-4.4
			l1.1-1.1C48.3,48.7,49.1,50.2,50.1,51.3z M46.4,43.2c-0.4,0-0.6,0.3-0.6,0.7v4.6L44.4,47c-0.2-0.3-0.7-0.3-0.9,0
			c-0.3,0.3-0.3,0.7,0,1l2.3,2.3v2.4c-2.8-0.3-5-2.8-5-5.7c0-1.6,0.7-3.2,1.9-4.3c0.2-0.2,0.3-0.5,0.2-0.8c-0.2-0.5-0.3-1-0.3-1.5
			c0-2.2,1.7-4,3.9-4c0.6,0,1.2,0.1,1.7,0.4c0,0.1,0,0.2,0,0.3v8.2l-1.1,1.1v-2.5C47.1,43.4,46.8,43.2,46.4,43.2z M54.4,56.7
			c-0.8,0.7-1.3,1.7-1.3,2.9c0,0.2,0,0.4,0.1,0.7h-6.1V54c1.5-0.2,2.9-0.8,4.1-1.9c1,0.7,2.1,1.1,3.3,1.2V56.7z M60.7,46.3
			c0,3-2.2,5.4-5,5.7v-4.4l1.8-1.9c0.3-0.3,0.3-0.7,0-0.9c-0.2-0.3-0.7-0.3-0.9,0l-0.9,0.9v-2.5c0-0.4-0.3-0.7-0.6-0.7
			c-0.4,0-0.7,0.3-0.7,0.7v4.6l-1.3-1.4c-0.3-0.3-0.7-0.3-0.9,0c-0.2,0.3-0.2,0.7,0,1l2.3,2.3V52c-2.8-0.3-5-2.8-5-5.7v-9.2
			c0-3.2,2.5-5.8,5.6-5.8c3.1,0,5.6,2.6,5.6,5.8V46.3z"/>
		<path class="st1" d="M70.8,59.6c0,0.6-0.1,1.1-0.3,1.6c-0.1,0.2-0.3,0.4-0.6,0.4h-8v-1.3h7.5c0.1-0.2,0.1-0.4,0.1-0.7
			c0-1.4-1.1-2.5-2.4-2.5c-0.7,0-1.3,0.3-1.7,0.7c-0.2,0.2-0.4,0.2-0.7,0.2c-0.2-0.1-0.4-0.3-0.5-0.5c-0.2-1.2-1.2-2.1-2.4-2.3V54
			c0.9,0.1,1.7,0.5,2.4,1.1v-2.9c-0.8-0.1-1.6-0.3-2.3-0.6v-1.5c0.7,0.4,1.5,0.6,2.3,0.7v-4.3L62,44.1v2.2c0,0.3,0,0.7-0.1,1l0-11
			c0,0.3,0.1,0.5,0.1,0.8v5.2l2.3,2.3v-5.7c0-0.4,0.3-0.7,0.7-0.7c0.4,0,0.7,0.3,0.7,0.7v3.3l1.3-1.3c0.3-0.3,0.7-0.3,0.9,0
			c0.2,0.3,0.2,0.7,0,1l-2.2,2.2v6.7c0.6-0.1,1.1-0.2,1.7-0.4c0.3-0.1,0.7,0.1,0.8,0.4c0.1,0.3,0,0.7-0.4,0.9
			c-0.7,0.3-1.4,0.4-2.1,0.5v4.1c0.5-0.2,1-0.3,1.5-0.3C69.2,55.8,70.8,57.6,70.8,59.6z"/>
		<path class="st1" d="M73,43.9c0,1.2-0.2,2.3-0.7,3.3c-0.1,0.2-0.4,0.4-0.6,0.4c-0.1,0-0.2,0-0.3-0.1c-0.3-0.2-0.5-0.6-0.3-0.9
			c0.4-0.9,0.6-1.8,0.6-2.8c0-2-0.8-3.8-2.3-5.2c-0.2-0.2-0.3-0.5-0.2-0.8c0.2-0.6,0.4-1.2,0.4-1.9c0-2.6-2.1-4.8-4.7-4.8
			c-1.6,0-3,0.8-3.9,2.2l-0.9-1.2c0,0,0.1,0.1,0.1,0.1c1.1-1.5,2.9-2.4,4.7-2.4c3.3,0,6,2.7,6,6.1c0,0.7-0.1,1.3-0.3,1.9
			C72.1,39.6,73,41.7,73,43.9z"/>
		<path class="st1" d="M70.7,49.4c0,0.2-0.1,0.3-0.2,0.5c-0.1,0.1-0.3,0.2-0.5,0.2c-0.2,0-0.3-0.1-0.5-0.2s-0.2-0.3-0.2-0.5
			s0.1-0.3,0.2-0.5c0.1-0.1,0.3-0.2,0.5-0.2c0.2,0,0.3,0.1,0.5,0.2C70.6,49,70.7,49.2,70.7,49.4z"/>
	</g>
</g>
<line class="st2" x1="115.4" y1="65.9" x2="115.2" y2="65.9"/>
<line class="st1" x1="61.9" y1="61.2" x2="61.9" y2="66.4"/>
<line class="st1" x1="61.9" y1="55" x2="61.9" y2="59.9"/>
<line class="st1" x1="61.9" y1="51.3" x2="61.9" y2="53.7"/>
<line class="st1" x1="61.9" y1="49.9" x2="61.9" y2="47.2"/>
<polyline class="st1" points="61.9,36.5 61.9,32.7 61.9,31.1 61.9,30.3 "/>
<line class="st1" x1="0" y1="48.2" x2="0" y2="73.2"/>
</svg>
