<?xml version="1.0" encoding="utf-8"?>
<!-- Generator: Adobe Illustrator 24.1.0, SVG Export Plug-In . SVG Version: 6.00 Build 0)  -->
<svg version="1.1" xmlns="http://www.w3.org/2000/svg" xmlns:xlink="http://www.w3.org/1999/xlink" x="0px" y="0px"
	 viewBox="0 0 512 512" style="enable-background:new 0 0 512 512;" xml:space="preserve">
<style type="text/css">
	.st0{display:none;}
	.st1{display:inline;}
</style>
<g id="Layer_1" class="st0">
</g>
<g id="Working">
	<g transform="translate(0.000000,512.000000) scale(0.100000,-0.100000)">
		<path d="M3189.4,4973.8c-485.4-76-916.2-382-1159.8-821.3c-29.2-52.3-67.3-134.3-85.8-181.6c-31.2-82.9-33.1-85.9-71.2-95.8
			c-21.4-5.9-76-38.5-122.8-75l-83.8-64.2l-34.1,13.8l-34.1,14.8l-11.7,100.7c-13.6,114.5-34.1,163.9-80.9,198.4
			c-30.2,21.7-40.9,22.7-218.3,25.7c-210.5,3.9-236.8-2-279.7-59.2c-28.3-36.5-40.9-85.9-51.7-193.5c-6.8-70.1-6.8-72.1-40-85.9
			c-18.5-7.9-38-11.8-42.9-8.9c-4.9,3-45.8,33.6-90.6,68.1c-145.2,110.6-192,102.7-353.8-57.3c-124.8-123.4-146.2-154-155-215.2
			c-7.8-58.2,8.8-97.7,83.8-194.5l58.5-77l-13.6-35.5l-14.6-35.5l-102.3-11.8c-115-13.8-162.8-35.5-197.9-87.9
			c-21.4-31.6-22.4-42.4-22.4-225.1c0-203.4,3.9-223.1,50.7-265.5c37-34.6,58.5-41.5,167.6-54.3l104.3-12.8l14.6-33.6
			c6.8-18.8,10.7-37.5,7.8-42.4c-2.9-4.9-33.1-46.4-67.3-91.8c-68.2-92.8-81.9-135.2-63.4-204.3c9.7-35.5,33.1-66.1,125.7-160.9
			c65.3-67.1,129.6-124.4,152-135.2c78-36.5,136.5-19.7,253.4,73.1l67.3,54.3l34.1-13.8c18.5-7.9,35.1-15.8,35.1-16.8
			c1-1,7.8-48.4,13.6-105.6c13.6-113.5,25.3-143.1,69.2-180.7c40.9-34.6,86.7-46.4,188.1-46.4h84.8v-176.7
			c0-183.6,4.9-216.2,41.9-255.7c37-40.5,77-55.3,196.9-71.1l117-14.8l20.5-43.4l21.4-44.4l-77-100.7
			c-79.9-106.6-93.6-141.2-83.8-212.2c6.8-55.3,39-98.7,167.6-225.1c117-115.5,154-139.2,219.3-139.2c56.5,0,97.5,20.7,194,96.7
			l84.8,68.1l42.9-20.7l42.9-20.7l16.6-125.4c13.6-107.6,19.5-131.3,42.9-161.9c52.6-70.1,63.4-73.1,292.4-73.1
			c232,0,250.5,4.9,300.2,75c22.4,32.6,29.2,58.2,42.9,161.9c8.8,68.1,20.5,126.4,26.3,131.3c5.8,3.9,27.3,11.8,46.8,17.8
			c35.1,11.8,37,10.9,114-51.3c42.9-34.6,92.6-71.1,110.1-80.9c39-20.7,116-21.7,157.9-2c17.5,8.9,91.6,76,163.7,151
			c193,197.4,197.9,234,57.5,420.5l-69.2,91.8l16.6,41.5c19.5,45.4,17.5,44.4,149.1,61.2c118.9,13.8,166.7,34.6,201.8,88.8
			l27.3,41.5l2.9,201.4c2.9,189.5,1.9,204.3-17.5,245.8c-11.7,23.7-30.2,48.4-40,54.3c-22.4,11.8-24.4,28.6-3.9,28.6
			c7.8,0,47.8,13.8,89.7,30.6c526.3,210.3,887.9,641.7,1008.8,1203.4c19.5,90.8,22.4,131.3,22.4,330.7
			c0,250.7-11.7,330.7-74.1,520.2c-162.8,496.5-577,904.2-1067.3,1049.4C3697.2,4987.6,3403.8,5007.4,3189.4,4973.8z M3729.3,4807
			c290.4-65.2,532.2-198.4,740.7-409.7c168.6-169.8,283.6-356.4,355.8-576.5c52.6-159.9,64.3-232,70.2-420.5
			c3.9-145.1,1.9-191.5-14.6-291.2c-79.9-472.9-377.2-874.6-806-1087.9c-102.3-50.3-269-105.6-380.1-125.4
			c-70.2-11.8-78.9-11.8-90.6,2c-14.6,19.7-15.6,17.8,39,89.8c38,48.4,53.6,61.2,87.7,70.1c234.9,59.2,450.3,174.7,606.2,326.8
			c64.3,63.2,74.1,78,74.1,106.6c0,45.4-32.2,80-74.1,80c-26.3,0-45.8-12.8-103.3-65.2c-119.9-109.6-274.9-206.3-406.4-251.7
			c-70.2-24.7-75-23.7-82.8,12.8c-3.9,22.7-40.9,67.1-135.5,163.9c-135.5,139.2-156.9,156-218.3,165.8
			c-62.4,9.9-110.1-10.9-210.5-89.8l-92.6-74l-42.9,19.7l-42.9,18.8l-16.6,125.4c-18.5,146.1-38,186.6-106.2,220.1
			c-40,18.8-59.5,20.7-235.9,20.7c-105.3,0-199.8-3.9-209.6-9.9c-15.6-7.9-22.4,0-47.8,57.3c-33.1,76-63.4,175.7-80.9,268.5
			c-18.5,97.7-16.6,324.8,3.9,423.5c96.5,459,423,801.6,874.3,917.1c89.7,22.7,121.8,25.7,258.3,25.7c135.5,0,169.6-3,258.3-25.7
			c188.1-48.4,323.6-116.5,472.7-237.9c193-158.9,328.5-379.1,392.8-638.7c21.4-88.8,25.3-125.4,25.3-256.7
			c0-215.2-25.3-329.7-117-525.2c-33.1-69.1-43.9-101.7-39-119.4c12.7-52.3,63.4-77,109.2-54.3c52.6,24.7,146.2,248.8,186.2,442.3
			c26.3,130.3,24.4,388-4.9,522.2c-116,527.1-501.9,917.1-1018.5,1029.6c-142.3,30.6-387.9,30.6-530.2,0
			c-523.4-113.5-918.1-521.2-1023.4-1055.3c-25.3-130.3-23.4-380.1,4.9-513.3c26.3-124.4,59.5-218.2,115-331.7l41.9-85.9l-12.7-98.7
			c-6.8-54.3-14.6-100.7-17.5-104.6c-19.5-18.8-169.6,254.7-220.3,401.8c-60.4,173.7-75,269.5-75,487.7
			c0,170.8,2.9,211.3,22.4,300.1c134.5,608.1,592.6,1051.3,1200.8,1161.9C3314.1,4835.6,3629.9,4829.7,3729.3,4807z M1422.3,3901.7
			c2.9-17.8,10.7-76,17.5-129.3c6.8-59.2,17.5-104.6,27.3-116.5c15.6-19.7,158.9-85.9,206.6-94.8c18.5-3.9,41.9,8.9,101.4,54.3
			c42.9,33.6,78.9,59.2,79.9,58.2c1-2-2.9-22.7-9.7-46.4c-6.8-27.6-10.7-131.3-10.7-271.5c0-197.4,2.9-239.9,21.4-325.8
			c26.3-124.4,71.2-262.6,119.9-368.2c29.2-65.2,34.1-80.9,20.5-76c-35.1,14.8-88.7,16.8-124.8,4.9c-27.3-8.9-75-49.4-171.5-146.1
			c-152-152-170.6-183.6-160.8-271.5l6.8-52.3L1512,2108c-19.5-6.9-40.9-21.7-47.8-33.6c-7.8-11.8-20.5-76-29.2-143.1
			c-7.8-67.1-17.5-125.4-20.5-131.3c-3.9-4.9-67.3-8.9-142.3-8.9c-160.8,0-145.2-13.8-164.7,156c-7.8,74-17.5,118.5-28.3,130.3
			c-22.4,25.7-176.4,88.8-215.4,88.8c-27.3-1-52.6-15.8-131.6-79c-53.6-43.4-99.4-79-102.3-79s-50.7,46.4-106.2,102.7l-100.4,101.7
			l78,101.7c43.9,56.3,80.9,112.5,84.8,125.4c2.9,14.8-4.9,47.4-22.4,89.8c-15.6,36.5-34.1,80.9-40.9,98.7
			c-18.5,47.4-40.9,57.3-160.8,70.1c-58.5,6.9-115,14.8-123.8,16.8c-15.6,4.9-17.5,20.7-17.5,152v146.1l32.2,4.9
			c16.6,3,74.1,10.9,126.7,17.8c104.3,12.8,136.5,28.6,148.1,75c2.9,15.8,19.5,58.2,35.1,94.8c19.5,44.4,27.3,74,22.4,88.8
			c-3.9,11.8-41.9,67.1-83.8,123.4l-78,101.7l95.5,97.7c52.6,54.3,101.4,98.7,108.2,98.7c7.8,0,59.5-35.5,117-80
			c82.8-64.2,108.2-79,128.7-75c46.8,8.9,191,75,206.6,94.8c9.7,11.8,19.5,58.2,27.3,126.4c19.5,169.8-1,151,166.7,151h144.2
			L1422.3,3901.7z M2817.1,2662.8c2.9-9.9,11.7-75,20.5-146.1c10.7-83.9,21.4-136.2,32.2-151c19.5-26.7,165.7-91.8,221.2-97.7
			c37-3.9,45.8,0,132.6,69.1c50.7,40.5,105.3,80.9,119.9,90.8l26.3,17.8l117-117.5c63.4-64.2,116-120.4,116-123.4
			c0-3.9-39-57.3-86.7-118.5c-46.8-62.2-88.7-122.4-92.6-134.3c-4.9-13.8,5.8-51.3,31.2-113.5c21.4-50.3,40.9-99.7,43.9-108.6
			c10.7-31.6,51.7-45.4,182.3-62.2c72.1-8.9,137.4-21.7,144.2-26.7c16.6-14.8,16.6-332.7-1-338.6c-6.8-3-75-13.8-151.1-23.7
			c-135.5-17.8-177.4-32.6-177.4-63.2c0-4.9-17.5-51.3-39-102.7c-27.3-63.2-38-100.7-33.1-114.5c3.9-11.8,46.8-74,94.5-138.2
			l88.7-116.5l-117-118.5c-63.4-64.2-119.9-117.5-125.7-117.5c-4.9,0-60.4,40.5-121.8,88.8c-70.2,55.3-120.9,88.8-135.5,88.8
			c-37,0-226.1-81.9-240.7-103.7c-6.8-10.9-20.5-83.9-30.2-162.9L2818,275.9l-168.6-3c-128.7-2-169.6,0-172.5,9.9
			c-2.9,6.9-12.7,77-23.4,155c-10.7,83.9-23.4,146.1-31.2,154c-20.5,18.8-184.2,85.9-223.2,90.8c-32.2,3.9-44.8-3-148.1-84.9
			c-62.4-49.4-117-89.8-121.8-89.8c-8.8,0-236.8,229-236.8,237.9c0,3.9,40,59.2,88.7,123.4c79.9,105.6,87.7,120.4,83.8,152
			c-4.9,39.5-71.2,205.3-89.7,225.1c-6.8,7.9-71.2,21.7-156.9,32.6c-79.9,10.9-148.1,22.7-152,26.7c-4.9,4.9-6.8,83.9-5.8,175.7
			l2.9,166.8l136.5,17.8c75,8.9,146.2,21.7,158.9,26.7c11.7,4.9,28.3,23.7,35.1,41.5c7.8,17.8,27.3,63.2,43.9,100.7
			c45.8,103.7,43.9,112.5-57.5,244.8c-47.8,63.2-87.7,118.5-87.7,123.4c0,3.9,52.6,61.2,116,125.4
			c80.9,81.9,119.9,114.5,128.7,109.6c7.8-4.9,60.4-45.4,117.9-90.8c117.9-92.8,140.4-98.7,220.3-58.2
			c25.3,12.8,64.3,28.6,86.7,35.5c65.3,19.7,71.1,32.6,91.6,189.5c10.7,78,20.5,147.1,23.4,154c2.9,8.9,45.8,11.8,169.6,11.8
			C2795.6,2679.6,2812.2,2677.6,2817.1,2662.8z"/>
		<path d="M3401.9,4207.8c-39-18.8-42.9-45.4-42.9-331.7v-274.4l-33.1-11.8c-43.9-16.8-116-97.7-130.6-148.1
			c-17.5-57.3-13.6-148.1,6.8-194.5l17.5-39.5l-74.1-83.9c-135.5-153-137.4-156-137.4-196.4c0-48.4,23.4-70.1,75-70.1
			c39,0,43.9,3.9,148.1,122.4l107.2,121.4l71.1-4.9c92.6-5.9,141.3,8.9,196.9,58.2c55.6,49.4,81.9,98.7,89.7,168.8
			c11.7,103.7-38,204.3-127.7,255.7l-53.6,30.6v284.3v285.3l-25.3,19.7C3461.3,4221.6,3434,4224.5,3401.9,4207.8z M3481.8,3444.7
			c40-16.8,67.3-70.1,57.5-114.5c-16.6-75-117-103.7-171.5-49.4c-47.8,49.4-37,121.4,23.4,158.9
			C3428.2,3463.4,3436.9,3463.4,3481.8,3444.7z"/>
		<path d="M1219.6,3355.8c-47.8-47.4-16.6-133.3,47.8-133.3c99.4,0,224.2-64.2,283.6-146.1c133.5-184.6,68.2-434.4-139.4-533.1
			c-46.8-22.7-69.2-26.7-138.4-26.7c-69.2,0-91.6,3.9-138.4,26.7c-77,36.5-138.4,96.7-176.4,174.7c-28.3,58.2-31.2,74-31.2,149.1
			c0,102.7,27.3,169.8,98.4,246.8c37,39.5,46.8,58.2,46.8,83.9c0,48.4-27.3,74-77,74c-37,0-45.8-4.9-91.6-54.3
			c-94.5-101.7-144.2-246.8-134.5-390.9c20.5-269.5,238.8-472.9,506.8-472.9c245.6,0,458.1,187.6,496.1,437.3
			c40.9,268.5-142.3,530.1-405.5,578.5C1276.1,3386.4,1245.9,3383.5,1219.6,3355.8z"/>
		<path d="M2502.2,2017.2c-344.1-90.8-512.7-486.7-346-809.5c18.5-35.5,48.7-81.9,66.3-101.7c27.3-29.6,39-35.5,72.1-35.5
			c31.2,0,43.9,5.9,59.5,25.7c30.2,38.5,25.3,60.2-28.3,140.2c-55.6,83.9-78,149.1-78,234c0,117.5,44.8,219.2,131.6,299.1
			c122.8,113.5,284.6,141.2,429.8,72.1c201.8-95.8,290.4-332.7,199.8-531.1c-40-84.9-115-163.9-194.9-203.4
			c-61.4-30.6-70.2-31.6-185.2-32.6c-113.1-1-122.8-3-139.4-23.7c-26.3-32.6-22.4-80.9,7.8-109.6c23.4-22.7,31.2-23.7,143.3-23.7
			c137.4,0,194,13.8,286.5,71.1c255.4,157,346,466.9,215.4,739.4c-42.9,90.8-154,204.3-242.7,247.8
			C2773.2,2038.9,2635.8,2052.8,2502.2,2017.2z"/>
	</g>
</g>
<g id="Layer_3" class="st0">
	<g transform="translate(0.000000,512.000000) scale(0.100000,-0.100000)" class="st1">
		<path d="M1180.1,5026.8l-25.4-26.3v-212.7c0-210.8,0-212.7,23.4-240.1c20.5-23.4,31.2-27.3,72.2-27.3
			c93.7,0,109.3,38.1,109.3,258.6c0,183.5-4.9,217.6-37.1,248.9C1287.4,5062.9,1216.2,5062.9,1180.1,5026.8z"/>
		<path d="M3797.4,5027.8c-32.2-31.2-37.1-65.4-37.1-248.9c0-220.6,15.6-258.6,109.3-258.6c41,0,51.7,3.9,72.2,27.3
			c23.4,27.3,23.4,29.3,23.4,240.1v212.7l-25.4,26.3C3903.8,5062.9,3832.6,5062.9,3797.4,5027.8z"/>
		<path d="M260.8,4853.1c-38.1-38.1-43.9-83-17.6-123c23.4-35.1,431.3-446,476.2-479.2c21.5-15.6,50.7-28.3,66.4-28.3
			c82,0,129.8,81,91.7,154.2c-15.6,28.3-453.8,467.5-493.8,493.8S298.9,4891.2,260.8,4853.1z"/>
		<path d="M4720.6,4858c-72.2-53.7-480.1-473.3-487-501.6c-3.9-14.6-3.9-42-1-61.5c11.7-59.5,89.8-90.8,150.3-58.6
			c28.3,15.6,467.5,453.8,493.8,493.8c26.3,40,20.5,84.9-17.6,123C4816.3,4896,4774.3,4898,4720.6,4858z"/>
		<path d="M3038.2,4516.4c-63.4-20.5-106.4-55.6-285-233.2L2560,4091.9L2440,4211c-148.3,146.4-178.6,162-304.5,162
			c-69.3,0-97.6-3.9-133.7-20.5c-99.5-44.9-185.4-157.1-199.1-257.6l-5.9-45.9l-45.9-6.8c-137.6-20.5-260.6-142.5-279.1-279.1
			l-6.8-45.9l-44.9-5.9c-118.1-15.6-229.3-111.3-265.4-227.4c-10.7-35.1-19.5-80-19.5-99.5c0-32.2,17.6-110.3,32.2-147.4
			c4.9-10.7-4.9-19.5-30.3-31.2c-63.4-29.3-116.1-83-150.3-152.2c-28.3-57.6-32.2-74.2-32.2-148.3c0-115.2,26.3-169.8,138.6-285
			l84.9-86.9L630.7,1985C330.1,1683.4,78.3,1426.7,72.4,1415c-20.5-40-12.7-89.8,17.6-121c23.4-23.4,37.1-28.3,75.1-28.3H212
			l381.6,380.6l380.6,380.6l344.5-344.5l343.5-343.5L1093.2,770l-568-568v-44.9c0-38.1,4.9-48.8,32.2-73.2
			c35.1-32.2,75.1-37.1,117.1-14.6c14.6,7.8,373.8,362.1,797.3,786.6c424.5,424.5,782.7,778.8,797.3,786.6
			c26.3,13.7,30.3,11.7,155.2-69.3c236.2-154.2,310.3-181.5,505.5-186.4l131.7-2.9l664.6-664.6l664.6-663.6h48.8
			c41,0,54.6,4.9,76.1,25.4c20.5,21.5,25.4,35.1,25.4,75.1v49.8l-390.4,391.3l-390.4,390.4l54.7,54.7c43.9,43.9,55.6,62.5,59.5,94.7
			c4.9,37.1,2,43.9-29.3,75.1c-55.6,55.6-102.5,47.8-185.4-32.2L3614,1134l-102.5,102.5L3409,1338.9l398.2,398.2l397.2,397.2
			l102.5-102.5l101.5-101.5l-55.6-58.6c-51.7-53.7-55.6-61.5-55.6-103.4c0-62.5,38.1-102.5,97.6-102.5c37.1,0,46.8,5.9,100.5,58.6
			l60.5,57.6l181.5-179.6c177.6-177.6,181.5-180.5,222.5-180.5c33.2,0,47.8,5.9,70.3,28.3c23.4,23.4,28.3,37.1,28.3,75.1v46.8
			l-375.7,376.7l-375.7,375.7v58.6c0,83-31.2,222.5-72.2,323l-34.2,86.9l106.4,108.3c136.6,137.6,151.3,167.9,151.3,301.6
			c0,86.9-2.9,103.4-26.3,146.4c-50.7,97.6-133.7,160-244,181.5l-53.7,10.7l-5.9,46.8c-16.6,141.5-131.7,250.8-290.8,277.2
			c-34.2,5.9-35.1,7.8-41,53.7c-15.6,133.7-137.6,257.6-266.4,272.3c-50.7,4.9-58.6,13.7-65.4,67.3
			c-11.7,91.7-87.8,193.2-179.6,238.1c-37.1,17.6-65.4,23.4-134.7,25.4C3102.6,4523.3,3051.9,4521.3,3038.2,4516.4z M3218.7,4290
			c18.5-16.6,38.1-43.9,42-61.5c16.6-62.5,1-87.8-138.6-230.3c-132.7-134.7-132.7-134.7-132.7-180.5c0-37.1,4.9-50.7,28.3-74.2
			c23.4-23.4,37.1-28.3,74.2-28.3c45.9,0,46.8,0,180.5,131.7c84.9,84.9,144.4,135.6,164,141.5c44.9,11.7,92.7-4.9,127.8-44.9
			c25.4-28.3,30.3-42,30.3-83.9v-50.7L3410,3623.5c-101.5-102.5-189.3-196.2-195.2-207.9c-20.5-41-12.7-81,23.4-117.1
			c31.2-31.2,39-34.2,74.2-29.3c37.1,4.9,57.6,22.4,227.4,190.3c202,200.1,229.3,218.6,293.7,197.1c50.7-16.6,92.7-70.3,92.7-118.1
			c0-21.5-4.9-48.8-10.7-60.5c-5.9-11.7-93.7-105.4-195.2-207.9c-171.8-172.7-184.4-188.3-184.4-221.5c0-50.7,17.6-82,56.6-100.5
			c62.5-29.3,79-19.5,280.1,180.5c201,199.1,228.4,217.6,290.8,197.1c75.1-25.4,116.1-116.1,82-182.5
			c-8.8-15.6-220.6-232.3-472.3-483.1c-364-361.1-474.3-465.5-544.5-513.3c-226.4-152.2-456.7-229.3-726.1-243
			c-138.6-6.8-204-18.5-274.2-49.8l-52.7-23.4L1900.3,2106l-276.2,275.2l41,26.3c88.8,56.6,163,172.7,163,252.8
			c0,24.4,3.9,29.3,37.1,34.2c156.1,28.3,271.3,138.6,290.8,281.1c5.9,44.9,5.9,44.9,51.7,51.7c137.6,20.5,262.5,144.4,280.1,279.1
			l5.9,45.9l45.9,5.9c100.5,13.7,212.7,99.5,257.6,199.1c16.6,36.1,20.5,64.4,20.5,133.7c0,100.5-17.6,152.2-75.1,216.6l-35.1,39
			l188.3,186.4l187.4,187.4h50.7C3175.8,4320.3,3189.5,4315.4,3218.7,4290z M2182.3,4160.2c17.6-7.8,120-102.5,228.4-211.8
			c170.8-172.7,197.1-204,204-238.1c17.6-95.6-94.7-182.5-179.6-137.6c-31.2,17.6-405,392.3-420.6,422.6
			c-26.3,51.7,1,123,59.5,159.1C2112.1,4177.8,2139.4,4178.8,2182.3,4160.2z M1850.5,3831.3c30.3-15.6,405-389.4,422.6-420.6
			c19.5-38.1,16.6-78.1-8.8-116.1c-32.2-47.8-81-72.2-128.8-63.4c-34.2,5.9-64.4,33.2-245.9,213.7
			c-175.7,175.7-207.9,212.7-212.7,243C1659.2,3781.6,1769.5,3872.3,1850.5,3831.3z M1529.5,3495.6
			c17.6-8.8,118.1-102.5,223.5-207.9c160-162,191.3-198.1,197.1-229.3c3.9-19.5,3.9-46.8,1-59.5c-8.8-37.1-51.7-81-90.8-94.7
			c-67.3-21.5-87.8-7.8-307.4,212.7c-223.5,225.4-232.3,239.1-197.1,312.3C1390.9,3499.5,1463.1,3526.9,1529.5,3495.6z
			 M1347.9,3018.4c28.3-15.6,233.2-219.6,259.6-259.6c53.7-82-38.1-208.8-138.6-190.3c-29.3,4.9-60.5,30.3-162,129.8
			c-154.2,152.2-173.7,191.3-134.7,263.5C1205.5,3025.3,1286.5,3050.6,1347.9,3018.4z M4065.8,2568.5
			c22.4-73.2,36.1-146.4,36.1-198.1v-45.9l-418.7-418.7l-419.6-419.6l-53.7,50.7c-70.3,67.3-91.7,74.2-170.8,59.5
			c-123.9-23.4-274.2,5.9-381.6,73.2l-51.7,33.2l52.7,6.8c213.7,27.3,460.6,118.1,640.2,235.2c128.8,83,207.9,153.2,486,432.3
			c139.6,139.6,255.7,250.8,259.6,246.9S4058,2595.9,4065.8,2568.5z M1676.8,2036.7l341.6-341.6l-102.5-102.5l-102.5-102.5
			l-343.5,343.5l-344.5,344.5l99.5,99.5c55.6,55.6,102.5,100.5,105.4,100.5S1489.4,2225,1676.8,2036.7z"/>
		<path d="M87.1,3933.8c-36.1-37.1-36.1-107.3,0-144.4l26.3-25.4h212.7c210.8,0,212.7,0,240.1,23.4c23.4,20.5,27.3,31.2,27.3,74.2
			c0,42.9-3.9,53.7-27.3,74.2c-27.3,23.4-29.3,23.4-240.1,23.4H113.4L87.1,3933.8z"/>
		<path d="M4553.8,3935.8c-23.4-20.5-27.3-31.2-27.3-74.2c0-42.9,3.9-53.7,27.3-74.2c27.3-23.4,29.3-23.4,240.1-23.4h212.7
			l26.3,25.4c36.1,37.1,36.1,107.3,0,144.4l-26.3,25.4h-212.7C4583,3959.2,4581.1,3959.2,4553.8,3935.8z"/>
		<path d="M4031.7,1543.8c-35.1-19.5-46.8-42.9-46.8-92.7c0-85.9,97.6-129.8,164-73.2c16.6,13.7,32.2,37.1,36.1,52.7
			c6.8,31.2-12.7,85.9-37.1,106.4C4123.4,1557.5,4061.9,1560.4,4031.7,1543.8z"/>
	</g>
</g>
</svg>
