<?xml version="1.0" encoding="utf-8"?>
<!-- Generator: Adobe Illustrator 16.0.0, SVG Export Plug-In . SVG Version: 6.00 Build 0)  -->
<!DOCTYPE svg PUBLIC "-//W3C//DTD SVG 1.1//EN" "http://www.w3.org/Graphics/SVG/1.1/DTD/svg11.dtd">
<svg version="1.1" xmlns="http://www.w3.org/2000/svg" xmlns:xlink="http://www.w3.org/1999/xlink" x="0px" y="0px"
	 width="1133.858px" height="1133.858px" viewBox="0 0 1133.858 1133.858" enable-background="new 0 0 1133.858 1133.858"
	 xml:space="preserve">
<g id="axis">
	<g id="x_axis">
		<g>
			
				<line fill="none" stroke="#507DFA" stroke-width="5.081" stroke-miterlimit="10" x1="35.875" y1="566.93" x2="1097.983" y2="566.93"/>
			<g>
				<polygon fill="#507DFA" points="0,566.93 50.552,587.586 38.557,566.93 50.552,546.278 				"/>
			</g>
			<g>
				<polygon fill="#507DFA" points="1133.858,566.93 1083.307,587.586 1095.302,566.93 1083.307,546.278 				"/>
			</g>
		</g>
	</g>
	<g id="y_axis">
		<g>
			
				<line fill="none" stroke="#507DFA" stroke-width="5.0761" stroke-miterlimit="10" x1="566.981" y1="35.965" x2="566.981" y2="1098.019"/>
			<g>
				<polygon fill="#507DFA" points="566.981,0.125 546.345,50.628 566.981,38.645 587.613,50.628 				"/>
			</g>
			<g>
				<polygon fill="#507DFA" points="566.981,1133.858 546.345,1083.355 566.981,1095.339 587.613,1083.355 				"/>
			</g>
		</g>
	</g>
</g>
<g id="lines">
	
		<line fill="none" stroke="#507DFA" stroke-width="2.0659" stroke-miterlimit="10" stroke-dasharray="2,10" x1="-2.087" y1="238.069" x2="1129.82" y2="238.069"/>
	
		<line fill="none" stroke="#507DFA" stroke-width="2.0659" stroke-miterlimit="10" stroke-dasharray="2,10" x1="3.249" y1="457.069" x2="1135.156" y2="457.069"/>
	
		<line fill="none" stroke="#507DFA" stroke-width="2.0659" stroke-miterlimit="10" stroke-dasharray="2,10" x1="3.249" y1="676.069" x2="1135.156" y2="676.069"/>
	
		<line fill="none" stroke="#507DFA" stroke-width="2.0659" stroke-miterlimit="10" stroke-dasharray="2,10" x1="2.715" y1="895.569" x2="1134.624" y2="895.569"/>
	
		<line fill="none" stroke="#507DFA" stroke-width="2.0627" stroke-miterlimit="10" stroke-dasharray="2,10" x1="906.965" y1="0.125" x2="906.965" y2="1128.54"/>
	
		<line fill="none" stroke="#507DFA" stroke-width="2.0627" stroke-miterlimit="10" stroke-dasharray="2,10" x1="680.31" y1="5.443" x2="680.31" y2="1133.858"/>
	
		<line fill="none" stroke="#507DFA" stroke-width="2.0627" stroke-miterlimit="10" stroke-dasharray="2,10" x1="453.375" y1="5.443" x2="453.375" y2="1133.858"/>
	
		<line fill="none" stroke="#507DFA" stroke-width="2.0539" stroke-miterlimit="10" stroke-dasharray="2,10" x1="225.932" y1="0" x2="225.932" y2="1118.784"/>
</g>
<g id="icons">
	<g id="not_used" display="none">
		<g id="low_energy">
			<path display="inline" d="M578.676,986.978c-0.685,0.875-3.385,4.354-6.009,7.758c-4.354,5.647-4.753,6.236-4.715,6.846
				c0.057,0.551,0.171,0.722,0.741,1.026c0.646,0.361,0.723,0.361,1.179,0.058c0.267-0.172,2.035-2.32,3.937-4.791
				c1.901-2.454,3.479-4.47,3.518-4.47c0.057,0,0.038,0.114,0,0.229c-0.114,0.38-8.233,29.662-8.366,30.194
				c-0.076,0.342,0,0.646,0.285,1.008l0.399,0.513h12.549c6.883,0,12.53,0.038,12.53,0.096c0,0.038-5.114,6.692-11.352,14.773
				c-6.236,8.081-11.484,14.927-11.637,15.212c-0.285,0.475-0.285,0.57,0.058,1.179c0.399,0.741,1.046,0.988,1.73,0.646
				c0.247-0.133,6.065-7.511,12.91-16.409c13.405-17.36,13.044-16.827,12.093-17.778c-0.38-0.38-0.627-0.38-13.367-0.38h-13.005
				l4.905-17.646c2.7-9.697,4.925-17.931,4.925-18.311c0-0.855-0.476-1.312-1.388-1.312
				C579.95,985.419,579.816,985.532,578.676,986.978"/>
			<path display="inline" d="M564.701,1005.44c-0.248,0.114-1.008,0.932-1.673,1.807c-0.932,1.217-1.199,1.729-1.199,2.225
				c0,0.74,0.533,1.235,1.351,1.235c0.646,0,1.026-0.342,2.338-2.072c1.255-1.636,1.389-2.396,0.571-3.042
				C565.499,1005.136,565.328,1005.117,564.701,1005.44"/>
			<path display="inline" d="M556.448,1015.784c-15.382,19.907-16.105,20.858-16.105,21.485c0,0.381,0.152,0.78,0.38,1.008
				c0.381,0.381,0.628,0.381,13.368,0.381h13.004l-4.906,17.645c-2.719,9.697-4.924,17.931-4.924,18.311
				c0,0.913,0.494,1.351,1.445,1.275c0.722-0.059,0.837-0.172,6.484-7.474c4.981-6.427,5.742-7.511,5.742-8.081
				c0.019-0.932-0.19-1.16-1.16-1.273l-0.855-0.096l-3.461,4.487c-1.921,2.472-3.499,4.487-3.537,4.487
				c-0.076,0-0.133,0.209,4.468-16.313l4.05-14.527l-0.38-0.494l-0.38-0.514l-12.588-0.057c-6.901-0.02-12.568-0.076-12.568-0.133
				c0-0.038,3.194-4.202,7.092-9.261c3.898-5.058,7.53-9.772,8.081-10.477c1.046-1.388,1.217-2.016,0.685-2.757
				c-0.209-0.304-0.476-0.418-1.027-0.418C558.615,1012.989,558.578,1013.027,556.448,1015.784"/>
		</g>
		<g id="high_energy" display="inline">
			<path d="M592.517,58.824c-1.448,1.851-7.161,9.214-12.714,16.416c-9.214,11.95-10.06,13.197-9.979,14.485
				c0.12,1.166,0.362,1.529,1.569,2.172c1.368,0.765,1.528,0.765,2.494,0.121c0.563-0.362,4.306-4.909,8.329-10.139
				c4.023-5.191,7.362-9.455,7.443-9.455c0.121,0,0.08,0.241,0,0.482c-0.241,0.805-17.422,62.768-17.704,63.894
				c-0.16,0.725,0,1.368,0.604,2.133l0.845,1.086h26.556c14.564,0,26.515,0.08,26.515,0.201c0,0.081-10.823,14.163-24.021,31.263
				c-13.196,17.1-24.301,31.585-24.623,32.189c-0.604,1.006-0.604,1.207,0.121,2.494c0.845,1.57,2.213,2.093,3.661,1.368
				c0.522-0.281,12.835-15.893,27.319-34.723c28.366-36.735,27.602-35.609,25.59-37.62c-0.805-0.805-1.327-0.805-28.285-0.805
				h-27.521l10.381-37.338c5.714-20.52,10.421-37.943,10.421-38.747c0-1.811-1.006-2.776-2.937-2.776
				C595.213,55.525,594.931,55.766,592.517,58.824"/>
			<path d="M531.721,78.66c-0.563,0.523-1.006,1.408-1.006,1.972c0,0.925,10.22,19.715,11.588,21.244
				c0.845,1.006,3.379,0.966,4.305-0.081c0.403-0.442,0.724-1.327,0.724-1.971c0-1.328-10.139-19.876-11.668-21.285
				C534.417,77.372,532.928,77.412,531.721,78.66"/>
			<path d="M611.065,78.539c-1.488,1.408-11.668,19.957-11.668,21.285c0,0.643,0.321,1.528,0.724,1.971
				c0.925,1.046,3.461,1.086,4.306,0.08c1.367-1.569,11.588-20.278,11.588-21.244c0-1.287-1.69-2.977-2.978-2.977
				C612.474,77.654,611.589,78.056,611.065,78.539"/>
			<path d="M506.252,82.884c-0.885,0.362-1.69,1.851-1.69,3.139c0,0.764,13.519,14.444,14.606,14.806
				c1.891,0.604,4.345-1.851,3.742-3.742c-0.403-1.247-14.083-14.605-14.968-14.565C507.54,82.522,506.775,82.684,506.252,82.884"/>
			<path d="M631.103,89.362c-3.862,3.822-7.162,7.323-7.282,7.725c-0.362,1.167,0.604,2.978,1.851,3.501
				c0.644,0.281,1.489,0.362,1.892,0.241c0.402-0.121,3.902-3.42,7.725-7.282c6.76-6.8,6.962-7.042,6.72-8.329
				c-0.121-0.725-0.483-1.529-0.765-1.811c-0.281-0.281-1.086-0.644-1.811-0.764C638.144,82.401,637.902,82.603,631.103,89.362"/>
			<path d="M562.944,97.892c-0.523,0.242-2.132,1.972-3.541,3.822c-1.971,2.575-2.535,3.662-2.535,4.708
				c0,1.569,1.127,2.616,2.857,2.616c1.368,0,2.173-0.725,4.949-4.386c2.656-3.461,2.937-5.07,1.207-6.438
				C564.634,97.248,564.271,97.208,562.944,97.892"/>
			<path d="M525.686,103.605c-1.649,1.609-1.328,2.776,1.65,5.875c1.489,1.528,3.058,2.856,3.46,3.017
				c1.932,0.604,4.386-1.85,3.782-3.782c-0.161-0.402-1.489-1.971-3.017-3.46C528.461,102.277,527.294,101.957,525.686,103.605"/>
			<path d="M614.888,105.577c-1.609,1.65-2.896,3.259-2.896,3.581c0,2.012,2.213,3.863,3.942,3.339
				c0.402-0.16,1.972-1.488,3.461-3.017c2.978-3.138,3.38-4.466,1.729-5.995C619.354,101.835,618.066,102.278,614.888,105.577"/>
			<path d="M500.619,109.561c-1.127,1.207-1.127,2.897,0.04,4.023c1.529,1.57,19.997,11.669,21.245,11.669
				c0.643,0,1.528-0.322,1.971-0.724c1.046-0.926,1.086-3.461,0.12-4.305c-1.77-1.53-20.318-11.588-21.364-11.588
				C501.947,108.636,501.101,109.038,500.619,109.561"/>
			<path d="M633.074,114.188c-5.353,3.018-9.979,5.754-10.381,6.076c-0.362,0.321-0.644,1.126-0.644,2.051
				c0,1.771,1.086,2.938,2.776,2.938c1.328,0,19.876-10.14,21.284-11.669c1.771-1.931,0.483-4.989-2.173-4.908
				C643.214,108.676,639.15,110.728,633.074,114.188"/>
			<path d="M545.481,119.78c-32.55,42.126-34.08,44.139-34.08,45.466c0,0.805,0.323,1.65,0.806,2.133
				c0.804,0.804,1.327,0.804,28.285,0.804h27.521l-10.381,37.339c-5.754,20.52-10.421,37.942-10.421,38.747
				c0,1.931,1.046,2.857,3.058,2.696c1.529-0.121,1.771-0.363,13.72-15.813c10.542-13.6,12.151-15.893,12.151-17.1
				c0.041-1.972-0.402-2.455-2.454-2.696l-1.811-0.201l-7.323,9.496c-4.064,5.23-7.404,9.495-7.484,9.495
				c-0.161,0-0.282,0.443,9.455-34.522l8.57-30.74l-0.805-1.046l-0.805-1.086l-26.636-0.121c-14.605-0.04-26.596-0.161-26.596-0.282
				c0-0.08,6.76-8.892,15.008-19.594c8.249-10.703,15.933-20.682,17.1-22.17c2.213-2.937,2.576-4.265,1.449-5.834
				c-0.443-0.644-1.006-0.886-2.173-0.886C550.068,113.865,549.987,113.946,545.481,119.78"/>
			<path d="M511.201,182.668c-5.512,3.098-10.38,6.035-10.743,6.478c-0.965,1.126-0.925,2.454,0.161,3.782
				c0.725,0.926,1.087,1.046,2.294,0.885c1.891-0.281,20.802-10.944,21.646-12.191c1.087-1.69-0.04-4.024-2.092-4.386
				C521.461,177.036,519.651,177.92,511.201,182.668"/>
			<path d="M623.378,177.519c-0.483,0.241-1.087,0.965-1.288,1.649c-0.845,2.334-0.161,2.857,10.421,8.852
				c5.432,3.058,10.421,5.673,11.146,5.794c2.495,0.403,4.265-2.695,2.655-4.667c-0.845-1.006-20.56-12.111-21.445-12.071
				C624.544,177.076,623.86,177.277,623.378,177.519"/>
			<path d="M527.617,192.848c-2.374,2.414-2.938,3.179-2.938,4.225c0,1.448,1.57,2.897,3.099,2.897c1.086,0,6.357-4.748,6.799-6.116
				c0.523-1.73-1.327-3.944-3.339-3.944C530.876,189.91,529.266,191.239,527.617,192.848"/>
			<path d="M613.721,190.394c-1.046,0.523-1.891,2.374-1.568,3.46c0.442,1.369,5.713,6.116,6.8,6.116
				c1.528,0,3.098-1.448,3.098-2.897c0-1.046-0.563-1.81-2.938-4.224C616.135,189.911,615.411,189.549,613.721,190.394"/>
			<path d="M542.303,200.654c-1.288,1.489-11.266,19.675-11.467,20.922c-0.161,1.006,0,1.489,0.804,2.294
				c1.288,1.287,2.736,1.327,4.024,0.12c1.529-1.367,11.668-19.916,11.668-21.244c0-0.644-0.321-1.529-0.724-1.971
				C545.682,199.729,543.148,199.688,542.303,200.654"/>
			<path d="M600.121,200.774c-0.402,0.443-0.724,1.328-0.724,1.972c0,1.327,10.18,19.876,11.668,21.244
				c1.288,1.207,2.736,1.167,4.023-0.121c0.805-0.804,0.966-1.287,0.805-2.293c-0.201-1.247-10.18-19.434-11.467-20.923
				C603.582,199.688,601.047,199.729,600.121,200.774"/>
			<path d="M625.39,202.062c-1.207,0.563-1.893,2.333-1.368,3.581c0.522,1.328,13.801,14.444,14.646,14.444
				c1.972,0,3.862-2.212,3.34-3.902c-0.402-1.288-14.083-14.606-14.969-14.565C626.637,201.62,625.872,201.821,625.39,202.062"/>
			<path d="M512.006,208.459c-3.863,3.822-7.162,7.323-7.283,7.725c-0.603,1.891,1.851,4.346,3.742,3.742
				c0.402-0.121,3.903-3.42,7.725-7.282c6.76-6.8,6.961-7.042,6.72-8.329c-0.322-1.65-0.926-2.253-2.575-2.575
				C519.047,201.499,518.806,201.7,512.006,208.459"/>
		</g>
	</g>
	<g id="low_energy_1_">
		<polygon id="low_energy_simple" fill="#FFFFFF" stroke="#FFFFFF" stroke-width="18.6317" stroke-miterlimit="10" points="
			555.393,1062.016 597.217,1007.071 568.166,1007.392 578.253,968.393 536.206,1021.674 565.044,1021.494 		"/>
		<polygon id="low_energy_simple_1_" fill="#FFFFFF" stroke="#507DFA" stroke-width="2.9811" stroke-miterlimit="10" points="
			555.393,1062.016 597.217,1007.071 568.166,1007.392 578.253,968.393 536.206,1021.674 565.044,1021.494 		"/>
	</g>
	<g id="high_energy_Kopie">
		<polygon fill="#FFFFFF" stroke="#FFFFFF" stroke-width="20.4796" stroke-miterlimit="10" points="516.504,158.004 586.588,67.358 
			569.489,133.927 618.551,133.952 547.49,224.856 566.418,157.721 		"/>
		<path fill="#FFFFFF" stroke="#507DFA" stroke-width="2.4575" stroke-miterlimit="10" d="M531.734,84.691
			c-0.479,0.444-0.855,1.196-0.855,1.676c0,0.786,8.685,16.754,9.848,18.053c0.717,0.855,2.871,0.822,3.658-0.069
			c0.343-0.375,0.615-1.127,0.615-1.675c0-1.128-8.616-16.891-9.916-18.088C534.025,83.597,532.76,83.631,531.734,84.691"/>
		<path fill="#FFFFFF" stroke="#507DFA" stroke-width="2.4575" stroke-miterlimit="10" d="M599.167,84.589
			c-1.266,1.196-9.916,16.959-9.916,18.088c0,0.546,0.274,1.298,0.616,1.674c0.784,0.889,2.94,0.924,3.657,0.068
			c1.163-1.333,9.849-17.232,9.849-18.053c0-1.093-1.438-2.53-2.53-2.53C600.364,83.837,599.612,84.179,599.167,84.589"/>
		<path fill="#FFFFFF" stroke="#507DFA" stroke-width="2.4575" stroke-miterlimit="10" d="M510.09,88.281
			c-0.752,0.307-1.436,1.573-1.436,2.668c0,0.649,11.489,12.274,12.412,12.582c1.607,0.513,3.692-1.573,3.181-3.18
			c-0.343-1.06-11.968-12.411-12.721-12.376C511.185,87.975,510.535,88.111,510.09,88.281"/>
		<path fill="#FFFFFF" stroke="#507DFA" stroke-width="2.4575" stroke-miterlimit="10" d="M616.195,93.786
			c-3.283,3.249-6.086,6.224-6.189,6.565c-0.307,0.992,0.513,2.531,1.574,2.975c0.545,0.239,1.264,0.308,1.606,0.205
			c0.343-0.103,3.316-2.906,6.564-6.188c5.744-5.778,5.916-5.984,5.709-7.078c-0.102-0.616-0.408-1.299-0.648-1.539
			c-0.239-0.238-0.923-0.547-1.538-0.649C622.179,87.871,621.974,88.042,616.195,93.786"/>
		<path fill="#FFFFFF" stroke="#507DFA" stroke-width="2.4575" stroke-miterlimit="10" d="M526.605,105.89
			c-1.401,1.367-1.128,2.359,1.402,4.993c1.266,1.298,2.599,2.427,2.941,2.564c1.641,0.513,3.727-1.572,3.214-3.215
			c-0.138-0.341-1.266-1.674-2.564-2.939C528.964,104.762,527.973,104.489,526.605,105.89"/>
		<path fill="#FFFFFF" stroke="#507DFA" stroke-width="2.4575" stroke-miterlimit="10" d="M602.416,107.566
			c-1.369,1.402-2.462,2.771-2.462,3.043c0,1.71,1.879,3.283,3.35,2.838c0.343-0.135,1.676-1.264,2.942-2.564
			c2.529-2.667,2.871-3.795,1.469-5.095C606.211,104.386,605.117,104.762,602.416,107.566"/>
		<path fill="#FFFFFF" stroke="#507DFA" stroke-width="2.4575" stroke-miterlimit="10" d="M505.304,110.951
			c-0.958,1.026-0.958,2.462,0.034,3.419c1.299,1.334,16.994,9.916,18.054,9.916c0.546,0,1.298-0.273,1.675-0.615
			c0.888-0.787,0.923-2.941,0.102-3.658c-1.504-1.3-17.267-9.848-18.156-9.848C506.432,110.165,505.713,110.507,505.304,110.951"/>
		<path fill="#FFFFFF" stroke="#507DFA" stroke-width="2.4575" stroke-miterlimit="10" d="M617.87,114.883
			c-4.548,2.565-8.48,4.89-8.821,5.163c-0.31,0.273-0.548,0.958-0.548,1.743c0,1.505,0.924,2.497,2.361,2.497
			c1.128,0,16.89-8.617,18.086-9.916c1.506-1.641,0.411-4.239-1.846-4.171C626.487,110.199,623.034,111.942,617.87,114.883"/>
		<path fill="#FFFFFF" stroke="#507DFA" stroke-width="2.4575" stroke-miterlimit="10" d="M514.296,173.079
			c-4.684,2.633-8.821,5.128-9.13,5.505c-0.82,0.957-0.786,2.085,0.137,3.214c0.616,0.787,0.923,0.889,1.949,0.752
			c1.607-0.239,17.678-9.3,18.395-10.36c0.924-1.436-0.034-3.42-1.777-3.727C523.015,168.292,521.477,169.044,514.296,173.079"/>
		<path fill="#FFFFFF" stroke="#507DFA" stroke-width="2.4575" stroke-miterlimit="10" d="M609.63,168.703
			c-0.41,0.205-0.923,0.82-1.094,1.401c-0.718,1.983-0.137,2.428,8.854,7.522c4.617,2.599,8.856,4.821,9.472,4.924
			c2.121,0.343,3.624-2.29,2.257-3.966c-0.717-0.854-17.471-10.292-18.225-10.258C610.622,168.326,610.04,168.497,609.63,168.703"/>
		<path fill="#FFFFFF" stroke="#507DFA" stroke-width="2.4575" stroke-miterlimit="10" d="M528.247,181.73
			c-2.018,2.051-2.498,2.702-2.498,3.59c0,1.231,1.334,2.462,2.634,2.462c0.922,0,5.402-4.034,5.777-5.197
			c0.445-1.47-1.127-3.352-2.837-3.352C531.016,179.233,529.647,180.362,528.247,181.73"/>
		<path fill="#FFFFFF" stroke="#507DFA" stroke-width="2.4575" stroke-miterlimit="10" d="M601.424,179.644
			c-0.89,0.444-1.607,2.018-1.333,2.941c0.376,1.163,4.855,5.197,5.777,5.197c1.3,0,2.633-1.231,2.633-2.462
			c0-0.889-0.479-1.538-2.495-3.589C603.476,179.233,602.86,178.926,601.424,179.644"/>
		<path fill="#FFFFFF" stroke="#507DFA" stroke-width="2.4575" stroke-miterlimit="10" d="M540.727,188.363
			c-1.094,1.265-9.574,16.72-9.744,17.78c-0.137,0.855,0,1.265,0.682,1.95c1.095,1.093,2.325,1.127,3.42,0.102
			c1.3-1.162,9.916-16.925,9.916-18.053c0-0.548-0.272-1.3-0.615-1.676C543.598,187.577,541.446,187.542,540.727,188.363"/>
		<path fill="#FFFFFF" stroke="#507DFA" stroke-width="2.4575" stroke-miterlimit="10" d="M589.867,188.466
			c-0.342,0.377-0.616,1.128-0.616,1.676c0,1.127,8.65,16.891,9.916,18.053c1.096,1.026,2.326,0.991,3.42-0.102
			c0.684-0.685,0.819-1.095,0.684-1.949c-0.172-1.06-8.651-16.516-9.746-17.781C592.808,187.542,590.653,187.577,589.867,188.466"/>
		<path fill="#FFFFFF" stroke="#507DFA" stroke-width="2.4575" stroke-miterlimit="10" d="M611.341,189.56
			c-1.026,0.479-1.609,1.982-1.163,3.043c0.444,1.128,11.728,12.274,12.445,12.274c1.676,0,3.283-1.879,2.837-3.316
			c-0.342-1.094-11.966-12.412-12.72-12.377C612.399,189.185,611.75,189.355,611.341,189.56"/>
		<path fill="#FFFFFF" stroke="#507DFA" stroke-width="2.4575" stroke-miterlimit="10" d="M514.98,194.997
			c-3.283,3.248-6.087,6.223-6.189,6.564c-0.513,1.607,1.573,3.693,3.18,3.18c0.342-0.103,3.316-2.906,6.565-6.188
			c5.745-5.779,5.916-5.984,5.711-7.078c-0.274-1.402-0.788-1.915-2.188-2.188C520.964,189.081,520.759,189.252,514.98,194.997"/>
		<polygon fill="#FFFFFF" stroke="#507DFA" stroke-width="3.2767" stroke-miterlimit="10" points="516.504,158.004 586.588,67.358 
			569.489,133.927 618.551,133.952 547.49,224.856 566.418,157.721 		"/>
	</g>
	<g id="pleasant">
		<path fill="#FFFFFF" stroke="#FFFFFF" stroke-width="20" stroke-miterlimit="10" d="M1068.521,566.997
			c0,27.399-22.21,49.613-49.606,49.613s-49.606-22.214-49.606-49.613c0-27.405,22.21-49.614,49.606-49.614
			S1068.521,539.592,1068.521,566.997z"/>
		<path fill="#FFFFFF" stroke="#507DFA" stroke-width="3.8634" stroke-miterlimit="10" d="M1068.521,566.997
			c0,27.399-22.21,49.613-49.606,49.613s-49.606-22.214-49.606-49.613c0-27.405,22.21-49.614,49.606-49.614
			S1068.521,539.592,1068.521,566.997z"/>
		<path fill="#507DFA" stroke="#507DFA" stroke-miterlimit="10" d="M999.248,551.081c-3.886,1.425-5.073,6.628-2.267,9.823
			c1.101,1.274,2.461,1.814,4.469,1.814c1.512,0,1.878-0.086,2.893-0.648c4.21-2.331,4.146-8.528-0.129-10.687
			C1002.918,550.736,1000.608,550.583,999.248,551.081"/>
		<path fill="#507DFA" stroke="#507DFA" stroke-miterlimit="10" d="M1036.426,550.994c-1.728,0.626-3.304,2.224-3.8,3.865
			c-0.842,2.828,0.346,5.829,2.85,7.211c1.014,0.561,1.382,0.648,2.893,0.648c1.382,0,1.922-0.109,2.699-0.497
			c1.856-0.972,2.807-2.246,3.26-4.34c0.582-2.741-1.036-5.742-3.627-6.714C1039.427,550.692,1037.483,550.627,1036.426,550.994"/>
		<path fill="#507DFA" stroke="#507DFA" stroke-miterlimit="10" d="M993.03,582.266c-1.296,0.842-2.396,1.555-2.439,1.619
			c-0.194,0.173,1.359,2.311,3.043,4.211c4.901,5.571,11.616,9.459,19.043,11.056c3.887,0.821,10.254,0.757,14.314-0.173
			c7.578-1.749,14.616-6.109,19.409-12.07c1.122-1.382,2.094-2.894,1.964-3.023c-0.345-0.345-4.814-3.131-5.009-3.109
			c-0.129,0-0.712,0.691-1.316,1.512c-1.339,1.879-4.253,4.708-6.391,6.154c-4.901,3.39-10.406,5.118-16.278,5.118
			c-5.743,0-11.314-1.792-16.171-5.205c-2.008-1.402-5.247-4.577-6.499-6.369c-0.475-0.67-0.972-1.231-1.101-1.231
			C995.47,580.754,994.304,581.446,993.03,582.266"/>
	</g>
	<g id="unpleasant">
		<path fill="#FFFFFF" stroke="#FFFFFF" stroke-width="20" stroke-miterlimit="10" d="M163.657,566.81
			c0,27.392-22.209,49.606-49.606,49.606c-27.397,0-49.606-22.214-49.606-49.606c0-27.396,22.209-49.606,49.606-49.606
			C141.447,517.204,163.657,539.414,163.657,566.81z"/>
		<path fill="#FFFFFF" stroke="#507DFA" stroke-width="4.7972" stroke-miterlimit="10" d="M163.657,566.81
			c0,27.392-22.209,49.606-49.606,49.606c-27.397,0-49.606-22.214-49.606-49.606c0-27.396,22.209-49.606,49.606-49.606
			C141.447,517.204,163.657,539.414,163.657,566.81z"/>
		<path fill="#507DFA" stroke="#507DFA" stroke-miterlimit="10" d="M94.234,551.225c-1.209,0.453-2.591,1.598-3.238,2.677
			c-0.54,0.95-0.605,1.231-0.605,3.087c0,1.965,0.043,2.116,0.713,3.174c2.094,3.26,6.563,3.821,9.413,1.187
			c0.756-0.712,1.576-2.417,1.77-3.648c0.151-1.015-0.216-2.893-0.734-3.735c-0.713-1.166-1.9-2.181-3.001-2.591
			C97.256,550.901,95.314,550.835,94.234,551.225"/>
		<path fill="#507DFA" stroke="#507DFA" stroke-miterlimit="10" d="M130.764,551.44c-1.425,0.669-2.418,1.706-3.087,3.152
			c-0.454,0.972-0.518,1.382-0.432,2.699c0.13,1.77,0.518,2.677,1.749,3.972c2.267,2.332,6.218,2.332,8.528-0.021
			c2.331-2.375,2.331-6.239,0-8.507c-1.339-1.274-2.181-1.641-4.059-1.727C132.081,550.943,131.671,551.008,130.764,551.44"/>
		<path fill="#507DFA" stroke="#507DFA" stroke-miterlimit="10" d="M110.686,577.621c-6.067,0.908-11.464,3.002-16.02,6.197
			c-1.964,1.383-7.189,6.413-7.189,6.889c0.022,0.15,0.432,0.583,0.928,0.95c0.497,0.366,1.555,1.188,2.354,1.792l1.425,1.123
			l2.353-2.354c5.57-5.658,12.392-8.53,20.251-8.53c4.685-0.021,8.031,0.778,12.522,2.98c2.958,1.469,5.57,3.412,7.967,5.96
			l1.856,1.965l1.447-1.122c0.82-0.626,1.878-1.448,2.375-1.814c0.496-0.367,0.906-0.777,0.928-0.907
			c0-0.345-3.562-4.081-5.246-5.463c-4.297-3.498-8.982-5.787-14.53-7.062c-2.246-0.519-3.088-0.583-6.671-0.647
			C113.189,577.557,111.053,577.578,110.686,577.621"/>
	</g>
	<g id="hilfslinie">
	</g>
</g>
<g id="words" display="none">
	<text transform="matrix(1 0 0 1 947.3867 651.2432)" display="inline"><tspan x="0" y="0" font-family="'MyriadPro-Regular'" font-size="40">P</tspan><tspan x="21.08" y="0" font-family="'MyriadPro-Regular'" font-size="40">leasa</tspan><tspan x="104.959" y="0" font-family="'MyriadPro-Regular'" font-size="40">n</tspan><tspan x="126.998" y="0" font-family="'MyriadPro-Regular'" font-size="40">t</tspan></text>
	<text transform="matrix(1 0 0 1 18.8872 651.2432)" display="inline"><tspan x="0" y="0" font-family="'MyriadPro-Regular'" font-size="40">Unpleasa</tspan><tspan x="154.717" y="0" font-family="'MyriadPro-Regular'" font-size="40">n</tspan><tspan x="176.757" y="0" font-family="'MyriadPro-Regular'" font-size="40">t</tspan></text>
	<text transform="matrix(1 0 0 1 467.0547 1059.3975)" display="inline"><tspan x="0" y="0" font-family="'MyriadPro-Regular'" font-size="40">L</tspan><tspan x="18.359" y="0" font-family="'MyriadPro-Regular'" font-size="40">o</tspan><tspan x="40.079" y="0" font-family="'MyriadPro-Regular'" font-size="40">w      ene</tspan><tspan x="182.675" y="0" font-family="'MyriadPro-Regular'" font-size="40">r</tspan><tspan x="195.435" y="0" font-family="'MyriadPro-Regular'" font-size="40">gy</tspan></text>
	<text transform="matrix(1 0 0 1 477.0547 67.3604)" display="inline"><tspan x="0" y="0" font-family="'MyriadPro-Regular'" font-size="40">H</tspan><tspan x="26.44" y="0" font-family="'MyriadPro-Regular'" font-size="40">igh ene</tspan><tspan x="151.117" y="0" font-family="'MyriadPro-Regular'" font-size="40">r</tspan><tspan x="163.877" y="0" font-family="'MyriadPro-Regular'" font-size="40">gy</tspan></text>
</g>
</svg>
